<svg width="17" height="16" viewBox="0 0 17 16" fill="none" xmlns="http://www.w3.org/2000/svg">
<path d="M8.5 1.45455C7.64044 1.45455 6.78929 1.62385 5.99516 1.95279C5.20103 2.28173 4.47947 2.76386 3.87166 3.37166C3.26386 3.97947 2.78173 4.70103 2.45279 5.49516C2.12385 6.28929 1.95455 7.14044 1.95455 8C1.95455 8.85956 2.12385 9.71071 2.45279 10.5048C2.78173 11.299 3.26386 12.0205 3.87166 12.6283C4.47947 13.2361 5.20103 13.7183 5.99516 14.0472C6.78929 14.3762 7.64044 14.5455 8.5 14.5455C10.236 14.5455 11.9008 13.8558 13.1283 12.6283C14.3558 11.4008 15.0455 9.73596 15.0455 8C15.0455 6.26404 14.3558 4.59918 13.1283 3.37166C11.9008 2.14415 10.236 1.45455 8.5 1.45455ZM0.5 8C0.5 3.58182 4.08182 0 8.5 0C12.9182 0 16.5 3.58182 16.5 8C16.5 12.4182 12.9182 16 8.5 16C4.08182 16 0.5 12.4182 0.5 8ZM7.77273 2.18182H8.5C10.0431 2.18182 11.523 2.7948 12.6141 3.88592C13.7052 4.97705 14.3182 6.45692 14.3182 8V8.72727H12.8636V8C12.8636 6.84269 12.4039 5.73278 11.5856 4.91444C10.7672 4.0961 9.65731 3.63636 8.5 3.63636H7.77273V2.18182ZM8.5 6.54545C8.11423 6.54545 7.74426 6.6987 7.47148 6.97148C7.1987 7.24426 7.04545 7.61423 7.04545 8C7.04545 8.38577 7.1987 8.75574 7.47148 9.02852C7.74426 9.3013 8.11423 9.45455 8.5 9.45455C8.88577 9.45455 9.25574 9.3013 9.52852 9.02852C9.8013 8.75574 9.95455 8.38577 9.95455 8C9.95455 7.61423 9.8013 7.24426 9.52852 6.97148C9.25574 6.6987 8.88577 6.54545 8.5 6.54545ZM5.59091 8C5.59091 7.22846 5.8974 6.48852 6.44296 5.94296C6.98852 5.3974 7.72846 5.09091 8.5 5.09091C9.27154 5.09091 10.0115 5.3974 10.557 5.94296C11.1026 6.48852 11.4091 7.22846 11.4091 8C11.4091 8.77154 11.1026 9.51148 10.557 10.057C10.0115 10.6026 9.27154 10.9091 8.5 10.9091C7.72846 10.9091 6.98852 10.6026 6.44296 10.057C5.8974 9.51148 5.59091 8.77154 5.59091 8Z" fill="currentColor"/>
</svg>
