<svg xmlns="http://www.w3.org/2000/svg" width="31" height="31" fill="none"><path fill="currentColor" d="M29.98 9.703a1 1 0 0 0-.82-1.573h-4.48l3.202 4.57 2.097-2.997Z"/><path fill="currentColor" d="m24.68 8.13-9.6.37 6.402 4.2 3.199-4.57Z"/><path fill="currentColor" d="m15.08 8.5-9.6-.37 3.201 4.57 6.4-4.2ZM5.48 8.13H1.002a1 1 0 0 0-.82 1.573l2.1 2.997L5.48 8.13Z"/><path fill="currentColor" d="M5.483 8.128 2.28 12.7h6.4L5.483 8.128Z"/><path fill="currentColor" d="m15.08 8.5-6.402 4.2h6.401l.002-4.2Z"/><path fill="currentColor" d="m15.08 8.5-.001 4.2h6.403l-6.401-4.2ZM24.68 8.13l-3.198 4.57h6.4L24.68 8.13ZM21.482 12.7h-6.403l3.201 4.572 3.202-4.572Z"/><path fill="currentColor" d="M15.079 12.7h-6.4l3.201 4.572L15.08 12.7Z"/><path fill="currentColor" d="m15.079 12.7-3.199 4.572h6.4L15.079 12.7ZM18.28 17.272h-6.4l3.2 4.571 3.2-4.571ZM11.88 17.272l-3.202 4.571h6.401l-3.199-4.571Z"/><path fill="currentColor" d="m18.28 17.272-3.203 4.57h6.403l-3.2-4.57ZM24.68 26.414l-6.6.086v4.483l6.6-4.569Z"/><path fill="currentColor" d="M21.482 21.843H15.08l3.002 4.657 3.401-4.657ZM15.077 21.842h-6.4L12.08 26.5l2.996-4.658Z"/><path fill="currentColor" d="m12.08 26.5-6.605-.087L12.081 31v-4.5Z"/><path fill="currentColor" d="m5.475 26.413-2.1 3a1 1 0 0 0 .816 1.573l7.89.014-6.606-4.587ZM8.676 21.842l-3.2 4.57 6.605.088-3.405-4.658ZM21.482 21.843 18.081 26.5l6.599-.086-3.198-4.571ZM24.682 26.415l-6.601 4.568 7.879.002a1 1 0 0 0 .82-1.573l-2.098-2.997ZM19.08 4a4 4 0 1 1-8 0 4 4 0 0 1 8 0Z"/></svg>
