<svg xmlns="http://www.w3.org/2000/svg" fill="none" viewBox="0 0 836 400"><path fill="#fcc309" d="M418.22 24.9h74.46q18.56 26.37 36.14 60.8h-2.69q12.2 11.71 22.46 31v2.44l-2.44 3.9q4.88.5 4.88 3.67l-1.22 1.22q11.23 1.22 11.23 12.45l-2.44 2.44h-13.67v2.44h-8.79v2.45h-7.32l-14.9 3.9v-1.22l-10 2.44-2.45-2.44h-3.66q0 3.66-2.69 3.66h-1.22l-9.76-17.33v-1.22h2.44q0 3.66 7.32 3.66l5.13-2.44 2.44 2.44 6.1-1.22v-2.44q-6.59 0-11.22-6.35l-6.1-1.22v-2.44h-3.67v2.44h-5.13q-3.66 0-3.66-7.32-5.37 0-18.55-26.13-37.36-59.57-41.02-69.58m325.93 349.86-1.22-1.23 1.22-33.44V291.5q6.1-7.32 13.67-7.32l-2.44-3.66v-6.35l-10.01-2.44V260.5l2.44-2.44-2.44-3.66v-34.92l1.22-37.1q0-8.8 34.91-63.24l1.22 1.22 2.44-2.44h-2.44L819.83 52h2.69v212.4q0 2.45-5.13 2.45v1.22q5.13 0 5.13 2.44v88.13q0 2.44-6.35 2.44v2.45h6.35v8.78l-2.69 2.45h-40.77l-8.79-1.23-4.88 1.23h-11.23l-1.22-1.23-1.22 1.23zm51.02-8.55v-2.69l-2.44-2.44v5.13zM467.78 41.01v1.23l2.69 2.44v-1.22zM779.06 356.2h-3.9v1.22l1.22 1.22zM417 49.07h2.44l42.24 72.02q-2.44 0-2.44 3.67-7.57 0-7.57 8.54l-10.99-1.22v1.22q0 2.93-13.67 6.35l-2.44 2.44h-1.47l-4.88-6.1H417zM801.28 346.2h2.44l-4.88-3.66h-2.45v1.22zm-18.56-4.88v-2.44h-6.34v2.44zm-12.45-6.35-3.66-3.66-1.22 3.66v1.22zm35.89-21 7.57-3.66v-1.22h-3.66q-2.44 0-2.45 3.66h-2.68v1.23zm-21-10v-4.89l-2.44 2.44zM517.6 100.59l-1.23 1.22v3.9l2.45 2.44 2.44-2.44v-1.46zm227.78 186.03-1.22-1.22v-6.1l2.44-2.69h3.9l2.45 2.69v2.44q-2.44 4.4-7.57 6.1zm-229-171.14v10q-5.13.5-5.13 3.67v1.22h7.57q0 7.57 4.88 7.57v-3.9l6.35 1.46h2.44l7.32-5.13-1.22-1.22v-1.22q0-3.17 5.13-3.66v-1.22h-13.67q-11.23-3.42-11.23-7.57zm293.7 166.26 6.1-1.22v-1.22h-1.22l-6.1 1.22v1.22zM534.92 125.49v4.88l-2.44 2.44h-1.22l-2.44-2.44zm-68.36 9.28h2.69l3.66 4.88-3.66 2.44h-2.69l-3.66-3.66zm-23.44 2.44q5.62 2.44 6.1 4.88l-2.44 6.35q2.45 0 2.45-3.9h7.56l3.67-2.45h1.22l2.44 2.44-2.44 3.9v1.23h2.44q6.35-2.69 6.35-5.13h3.66q7.32 5.13 7.32 12.45v1.22q-13.67 1.22-16.11 3.67h-13.67q0 2.68-6.1 2.68l-3.67 3.66-6.35-1.22h-3.66l-8.79 4.89h-3.66l-2.44-2.45V158.2l1.22-1.22-1.22-1.22v-6.1h1.22l2.44 2.44-1.22 1.22v1.22l8.79 1.22q0-2.44 8.54-3.66l-1.22-6.35h7.57v-1.22l-2.44-6.1h1.22zM613.3 351.07q-21.24-34.18-69.58-116.45-30.27-47.36-32.47-54.44h2.68v-1.23h-2.68l-1.22 1.23q-8.55-13.43-8.55-17.58h9.77v2.68h6.35l6.1 1.22 1.22-5.12 6.35 1.22h7.32l7.57-4.89 3.66 2.45h1.22q0-6.1 11.23-8.55l3.67 1.22v-2.44h1.22q8.79 8.3 8.79 14.9-3.18 0-3.67 4.88l3.67 2.44h1.22l-1.22-1.22v-3.66h3.66l33.69 56.64zm161.86-104.24-2.44-2.45h-1.22v2.45zm-16.1-6.1v-2.45l-6.11 1.22v1.22l1.22 1.22zm-283.7-71.3h4.88l1.22-1.22h1.47q1.22 11.23 7.32 11.23l1.22-1.22 2.44 7.33v8.79h-4.88v2.44h4.88l.5 177.49h-66.17l-5.13-1.22-4.88 1.22-1.22-1.22V184.33q2.93-7.57 10.01-7.57 5.86 0 8.55-2.44H438q11.23 5.12 11.23 7.56l3.66-1.22q5.13 1.22 5.13 8.55h1.22l2.44-2.44v-2.44q-4.88-4.64-4.88-7.57h-6.35l-6.1-1.22v-2.44l3.66-3.67h16.1v2.44h5.14v-2.44l-1.47-1.22V167l7.57-3.66zm10-2.44h2.45q4.88 1.95 4.88 8.55h-1.22q-6.1-2.44-6.1-8.55m55.9 5.62v2.44h3.67v-2.44zm-68.35 2.93-1.22 6.35v3.66h1.22q3.66-1.22 3.66-7.33zm79.34 5.86v1.22l5.13 1.22h1.22v-1.22l-2.44-2.44zm3.91 3.66v3.66l2.44-2.44v-1.22zm19.78 7.32h3.66l3.66-6.1h-1.22q-3.17 0-6.1 6.1m-6.35 0v1.47h5.13v-1.47zm-140.14 1.96q4.88 5.37 4.88 9.76h1.23q4.63-4.88 7.56-4.88v-2.44q-3.66 0-3.66-2.44zm34.67 2.44q0 5.61-12.45 6.1v6.35h1.22q4.88-5.13 10-5.13 0-4.88 3.67-4.88v-2.44zm21.24 7.32v1.22l2.44 2.69h1.22l-1.22-3.9zm-18.8 2.69v2.44h7.57v-2.44zm126.71.73-1.22 3.66v1.22h1.22l2.44-2.44v-2.44zm-150.15 1.7-1.22 1.23v1.22h4.89v-1.22zM456.8 219h4.88l2.44-2.44v-1.22q-7.32 1.22-7.32 3.66m134.03 8.3h3.66v-2.44h-1.22zm-161.38 6.6v2.68l2.44 2.44h1.22l-1.22-1.22v-1.22l1.22-1.46v-1.22zm376.71-76.42v-2.44h-1.22l-2.44 2.44zm-225.34 97.17v2.44h1.22l2.44-2.44zm132.57-125-2.44 2.44h-1.22l-2.45-2.44v-4.88zm58.35-78.86V52l2.68-2.44v-1.22zM639.66 307.13l2.44 2.44h1.22v-2.44zm12.2-65.67h-1.22v2.44h3.66zm11.72-27.84v2.44l2.44 2.45h1.22v-1.22l-1.22-3.67zm3.9-21.97v1.47h5.13v-1.47zm-7.32-6.1h-1.22l3.66 6.1h3.67q-2.93-6.1-6.1-6.1m23.43-1.22v1.22l2.44 2.44v-3.66zm2.44-4.89-2.44 2.45v1.22h1.22l5.13-1.22v-1.22zm11.23-7.56v2.44h3.67v-2.44zm17.1-46.64q4.63-3.41-2.2-2.93h-13.68v1.23q5.13.48 5.13 3.66v1.22l-1.22 1.22 7.33 5.13h2.44l6.34-1.47v3.9q4.89 0 4.89-7.56h7.56v-1.22q-4.39-.25-9.52-.73l-4.64-2.45zm18.55-23.19v1.47l2.44 2.44 2.44-2.44V99.6l-1.22-1.22zm-35.65 41.02v-.98H683.6l-2.44-2.44q0-11.23 11.23-12.45l-1.22-1.22q0-3.18 4.88-3.67l-2.44-3.9v-2.44q10.25-19.29 22.46-31h-2.68q17.57-34.43 36.13-60.8h74.46q-3.66 10.01-41.01 69.58-13.19 26.12-18.56 26.12 0 7.33-3.66 7.33l-5.13 6.1v-2.44h-3.66v2.44l-6.1 1.22q-4.64.25-11.23.25v2.44l6.1 1.22 2.44-2.44 5.13 2.44q7.32 0 7.32-3.66h2.44v1.22l-9.76 17.33q-.73 4.88-16.11 26.12l-1.23-1.22h-2.68v1.22h2.68q-2.2 7.08-32.47 54.45-48.34 82.27-69.58 116.45v-126.7l33.7-56.65h3.66v3.66l-1.22 1.22h1.22l3.66-2.44q-.49-4.88-3.66-4.88 0-6.6 13.91-21.73h1.22v2.44l3.67-1.22q8.54-1.95 12.2-.97m47.86 9.27q-.74-.97-.74-2.68h-3.66l-1.7 1.7zm-11-1.22-5.85-1.46v1.22l-14.9-3.9h-7.32v-2.45h-.73l1.46 6.1h7.33l6.35-1.22 1.22 5.13 6.1-1.22h6.35zm-29.78-6.59h-4.63q.48.74.48 1.95h1.22z"/><path fill="#fcc309" d="M418.22 24.9v-8h-11.45l3.94 10.75zm74.46 0 6.55-4.6-2.4-3.4h-4.15zm36.14 60.8v8h13.06l-5.94-11.65zm-2.69 0v-8h-19.88l14.34 13.76zm22.46 31h8v-2l-.93-1.76zm0 2.44 6.79 4.24 1.21-1.95v-2.29zm-2.44 3.9-6.78-4.23-6.83 10.92 12.81 1.28zm4.88 3.67 5.66 5.66 2.34-2.35v-3.31zm-1.22 1.22-5.65-5.66-11.81 11.8 16.6 1.81zm11.23 12.45 5.66 5.66 2.34-2.34v-3.32zm-2.44 2.44v8h3.31l2.35-2.34zm-13.67 0v-8h-8v8zm0 2.44v8h8v-8zm-8.79 0v-8h-8v8zm0 2.45v8h8v-8zm-7.32 0v-8h-1.04l-1 .26zm-14.9 3.9h-8v10.37l10.03-2.63zm0-1.22h8v-10.18l-9.9 2.4zm-10 2.44-5.66 5.66 3.18 3.18 4.37-1.07zm-2.45-2.44 5.66-5.66-2.34-2.34h-3.32zm-3.66 0v-8h-8v8zm-3.9 3.66-6.98 3.93 2.3 4.07h4.67zm-9.77-17.33h-8v2.1l1.03 1.83zm0-1.22v-8h-8v8zm2.44 0h8v-8h-8zm7.32 3.66v8h1.81l1.63-.78zm5.13-2.44 5.66-5.66-4-4-5.1 2.44zm2.44 2.44-5.65 5.66 3.02 3.02 4.2-.83zm6.1-1.22 1.57 7.84 6.44-1.28v-6.56zm0-2.44h8v-8h-8zm-11.22-6.35 6.45-4.72-1.83-2.51-3.06-.61zm-6.1-1.22h-8v6.56l6.42 1.28zm0-2.44h8v-8h-8zm-3.67 0v-8h-8v8zm0 2.44v8h8v-8zm-8.79-7.32h8v-8h-8zm-18.55-26.13 7.14-3.6-.17-.33-.2-.32zm284.9 280.28-5.65 5.65 2.34 2.35h3.32zm-1.21-1.23-8-.29-.12 3.49 2.46 2.46zm1.22-33.44 8 .29v-.29zm0-48.59-6.15-5.12-1.85 2.23v2.9zm13.67-7.32v8h14.95l-8.3-12.44zm-2.44-3.66h-8v2.42l1.34 2.02zm0-6.35h8v-6.28l-6.1-1.5zm-10.01-2.44h-8V278l6.1 1.5zm0-11.23-5.66-5.66-2.34 2.34v3.32zm2.44-2.44 5.66 5.65 4.63-4.63-3.63-5.46zm-2.44-3.66h-8v2.42l1.34 2.01zm0-34.92-8-.26v.26zm1.22-37.1 8 .26v-.27zm34.91-63.24 5.66-5.66-7.03-7.02-5.36 8.36zm1.22 1.22-5.65 5.66 5.65 5.66 5.66-5.66zm2.44-2.44 5.66 5.66 13.66-13.66h-19.32zm-2.44 0-6.97-3.92-6.71 11.92h13.68zM819.83 52v-8h-4.68l-2.29 4.08zm2.69 0h8v-8h-8zm-5.13 214.85v-8h-8v8zm0 1.22h-8v8h8zm-1.22 93.01v-8h-8v8zm0 2.45h-8v8h8zm6.35 0h8v-8h-8zm0 8.78 5.38 5.92 2.62-2.38v-3.54zm-2.69 2.45v8h3.1l2.28-2.08zm-40.77 0-1.1 7.92.55.08h.55zm-8.79-1.22 1.1-7.93-1.53-.21-1.5.37zm-4.88 1.22v8h.98l.96-.24zm-11.23 0-5.66 5.65 2.34 2.35h3.32zm-1.22-1.22 5.65-5.66-5.65-5.66-5.66 5.66zm-1.22 1.22v8h3.31l2.34-2.35zm43.45-8.55v8h8v-8zm0-2.68h8v-3.32l-2.34-2.34zm-2.44-2.45 5.66-5.65-13.66-13.66v19.31zm0 5.13h-8v8h8zM467.78 41.01l5.38-5.91-13.38-12.17v18.09zm0 1.23h-8v3.54l2.62 2.38zm2.69 2.44-5.39 5.92 13.39 12.16V44.68zm0-1.22h8v-3.54l-2.62-2.38zm308.6 312.74 5.37 5.92 15.31-13.92h-20.69zm-3.92 0v-8h-8v8zm0 1.22h-8v3.32l2.35 2.34zm1.22 1.22-5.65 5.66 5.4 5.4 5.64-5.14zM417 49.07v-8h-8v8zm2.44 0 6.9-4.05-2.32-3.95h-4.58zm42.24 72.02v8h13.96l-7.06-12.04zm-2.44 3.67v8h8v-8zm-7.57 8.54-.89 7.95 8.89.99v-8.94zm-10.99-1.22.89-7.95-8.89-.99v8.94zm-13.67 7.57-1.94-7.76-2.15.54-1.57 1.56zm-2.44 2.44v8h3.31l2.35-2.34zm-1.47 0-6.24 5 2.4 3h3.84zm-4.88-6.1 6.25-5-2.4-3h-3.85zm-1.22 0h-8v8h8zm384.28 210.2-3.58 7.16 1.69.84h1.89zm2.44 0v8h24l-19.2-14.4zm-4.88-3.66 4.8-6.4-2.14-1.6h-2.66zm-2.45 0v-8h-8v8zm0 1.22h-8v4.94l4.43 2.22zm-13.67-2.44v8h8v-8zm0-2.44h8v-8h-8zm-6.35 0v-8h-8v8zm0 2.44h-8v8h8zm-6.1-6.35 1.94 7.76 13.7-3.42-9.98-10zm-3.66-3.66 5.66-5.66-9.16-9.15-4.09 12.28zm-1.22 3.66-7.6-2.53-.4 1.23v1.3zm0 1.22h-8v10.25l9.94-2.49zm40.77-22.21v8h1.83l1.65-.8zm7.57-3.67 3.48 7.2 4.52-2.18v-5.02zm0-1.22h8v-8h-8zm-6.1 3.66v8h8v-8zm-2.7 0v-8h-8v8zm0 1.23h-8v8h8zm-19.77-10.01-5.65 5.65 13.65 13.66v-19.31zm0-4.89h8v-19.31l-13.65 13.66zm-2.44 2.44-5.65-5.65-5.66 5.65 5.66 5.66zM517.6 100.6l5.65-5.66-5.65-5.66-5.66 5.66zm-1.23 1.22-5.65-5.66-2.34 2.34v3.32zm0 3.9h-8v3.32l2.35 2.34zm2.45 2.44-5.66 5.66 5.66 5.66 5.65-5.66zm2.44-2.44 5.66 5.66 2.34-2.34v-3.32zm0-1.46h8v-3.32l-2.34-2.34zm224.12 182.37h8v-3.31l-2.34-2.35zm-1.22-1.22h-8v3.31l2.34 2.35zm0-6.1-5.92-5.39-2.08 2.3v3.09zm2.44-2.69v-8h-3.54l-2.38 2.62zm3.9 0 5.93-5.38-2.39-2.62h-3.53zm2.45 2.69h8v-3.1l-2.08-2.29zm0 2.44 7 3.88 1-1.8v-2.08zm-7.57 6.1h-8v11.1l10.53-3.5zm-229-172.36v-8h-8v8zm0 10 .75 7.97 7.25-.69v-7.27zm-5.13 4.9h-8v8h8zm7.57 0h8v-8h-8zm4.88 7.56v8h8v-8zm0-3.9 1.8-7.8-9.8-2.26v10.05zm6.35 1.46-1.8 7.8.89.2h.9zm2.44 0v8H535l2.07-1.45zm7.32-5.13 4.59 6.55 7.81-5.46-6.74-6.75zm-1.22-1.22h-8v3.31l2.34 2.35zm5.13-4.88.76 7.96 7.24-.69v-7.27zm0-1.22h8v-8h-8zm-13.67 0-2.33 7.65 1.14.35h1.19zm-11.23-7.57h8v-8h-8zm291.26 166.26v8h.79l.77-.16zm6.1-1.22 1.57 7.84 6.43-1.28v-6.56zm0-1.22h8v-8h-8zm-1.22 0v-8h-.8l-.77.15zm-6.1 1.22-1.57-7.85-6.43 1.29v6.56zm0 1.22h-8v8h8zM534.92 125.49h8v-16.65l-13 10.4zm0 4.88 5.66 5.66 2.34-2.34v-3.32zm-2.44 2.44v8h3.31l2.34-2.34zm-1.22 0-5.66 5.66 2.34 2.34h3.32zm-2.44-2.44-5-6.25-6.98 5.59 6.32 6.32zm-62.26 4.4v-8h-3.31l-2.35 2.34zm2.69 0 6.4-4.8-2.4-3.2h-4zm3.66 4.88 4.44 6.66 7.03-4.7-5.07-6.76zm-3.66 2.44v8h2.42l2.01-1.34zm-2.69 0-5.66 5.66 2.35 2.34h3.31zm-3.66-3.66-5.66-5.66-5.66 5.66 5.66 5.66zm-19.78-1.22 3.2-7.34-5-2.17-3.85 3.85zm6.1 4.88 7.47 2.87.84-2.16-.46-2.28zm-2.44 6.35-7.46-2.87-4.18 10.87h11.64zm2.45-3.9v-8h-8v8zm7.56 0v8h2.43l2.01-1.35zm3.67-2.45v-8h-2.43l-2.01 1.34zm1.22 0 5.65-5.66-2.34-2.34h-3.31zm2.44 2.44 6.78 4.24 3.38-5.4-4.5-4.5zm-2.44 3.9-6.79-4.23-1.21 1.94v2.3zm0 1.23h-8v8h8zm2.44 0v8h1.62l1.5-.63zm6.35-5.13v-8h-8v8zm3.66 0 4.59-6.55-2.07-1.45h-2.52zm7.32 13.67.71 7.97 7.3-.65v-7.32zm-16.11 3.67v8h3.31l2.35-2.35zm-13.67 0v-8h-8v8zm-6.1 2.68v-8h-3.32l-2.34 2.34zm-3.67 3.66-1.5 7.86 4.16.8 3-3zm-6.35-1.22 1.51-7.85-.74-.15h-.77zm-3.66 0v-8h-2.07l-1.81 1zm-8.79 4.89v8h2.08l1.8-1.01zm-3.66 0-5.66 5.65 2.35 2.35h3.31zm-2.44-2.45h-8v3.32l2.34 2.34zm0-11.23-5.66-5.65-2.34 2.34v3.31zm1.22-1.22 5.66 5.66 5.65-5.66-5.65-5.65zm-1.22-1.22h-8v3.32l2.34 2.34zm0-6.1v-8h-8v8zm1.22 0 5.66-5.66-2.35-2.34h-3.3zm2.44 2.44 5.66 5.66 5.66-5.66-5.66-5.66zm-1.22 1.22-5.66-5.66-2.34 2.35v3.31zm0 1.22h-8v6.97l6.9.96zm8.79 1.22-1.1 7.93 9.1 1.26v-9.19zm8.54-3.66 1.14 7.92 8.3-1.19-1.58-8.24zm-1.22-6.35v-8h-9.68l1.83 9.51zm7.57 0v8h8v-8zm0-1.22h8V143l-.57-1.43zm-2.44-6.1v-8h-11.82l4.4 10.97zm1.22 0v8h3.32l2.34-2.35zm171.4 212.64-6.8 4.23 14.8 23.8v-28.03zm-69.6-116.45 6.9-4.05-.08-.13-.08-.13zm-32.47-54.44v-8h-10.86l3.22 10.37zm2.68 0v8h8v-8zm0-1.23h8v-8h-8zm-2.68 0v-8h-3.32l-2.34 2.35zm-1.22 1.23-6.75 4.3 5.35 8.4 7.05-7.05zm-8.55-17.58v-8h-8v8zm9.77 0h8v-8h-8zm0 2.68h-8v8h8zm6.35 0 1.56-7.84-.77-.16h-.8zm6.1 1.22-1.57 7.85 7.56 1.51 1.8-7.5zm1.22-5.12 1.51-7.86-7.52-1.45-1.77 7.45zm6.35 1.22-1.51 7.85.75.15h.76zm7.32 0v8h2.36l1.98-1.28zm7.57-4.89 4.44-6.65-4.37-2.91-4.4 2.84zm3.66 2.45-4.44 6.65 2.02 1.35h2.42zm1.22 0v8h8v-8zm11.23-8.55 2.53-7.59-2.08-.7-2.15.47zm3.67 1.22-2.53 7.6 10.53 3.5v-11.1zm0-2.44v-8h-8v8zm1.22 0 5.49-5.81-2.31-2.19h-3.18zm8.79 14.9v8h8v-8zm-3.67 4.88-7.96-.8-.48 4.79 4 2.66zm3.67 2.44-4.44 6.65 2.01 1.35h2.43zm1.22 0v8h19.31l-13.66-13.66zm-1.22-1.22h-8v3.31l2.34 2.34zm0-3.66v-8h-8v8zm3.66 0 6.87-4.1-2.32-3.9h-4.55zm33.69 56.64h8v-2.2l-1.13-1.9zm161.86 22.46v8h19.32l-13.66-13.66zm-2.44-2.44 5.66-5.66-2.34-2.34h-3.32zm-1.22 0v-8h-8v8zm0 2.44h-8v8h8zm-12.45-6.1 1.94 7.75 6.06-1.51v-6.25zm0-2.45h8v-9.76l-9.57 1.92zm-6.1 1.22-1.57-7.84-6.43 1.28v6.56zm0 1.22h-8v3.32l2.34 2.34zm1.22 1.22-5.66 5.66 3.2 3.2 4.4-1.1zm-278.81-72.5h-8v8h8zm4.88 0v8h3.32l2.34-2.35zm1.22-1.23v-8h-3.31l-2.34 2.35zm1.47 0 7.95-.86-.77-7.14h-7.18zm7.32 11.23v8h3.32l2.34-2.34zm1.22-1.22 7.6-2.53-4.1-12.28-9.15 9.16zm2.44 7.33h8v-1.3l-.4-1.23zm0 8.79v8h8v-8zm-4.88 0v-8h-8v8zm0 2.44h-8v8h8zm4.88 0 8-.03-.02-7.97h-7.98zm.5 177.49v8h8.01l-.02-8.02zm-66.17 0-1.85 7.78.91.22h.94zm-5.13-1.22 1.86-7.79-1.9-.45-1.9.48zm-4.88 1.22-5.66 5.65 3.2 3.2 4.4-1.1zm-1.22-1.22h-8v3.31l2.34 2.34zm0-188.72-7.46-2.9-.54 1.4v1.5zm18.56-10.01v-8h-3.1l-2.29 2.08zm2.44 0 3.32-7.28-1.58-.72H438zm11.23 7.57h-8v11.1l10.53-3.52zm3.66-1.23 1.85-7.78-2.22-.53-2.16.73zm5.13 8.55h-8v8h8zm1.22 0v8h3.31l2.34-2.34zm2.44-2.44 5.65 5.65 2.35-2.34v-3.31zm0-2.44h8v-3.44l-2.5-2.36zm-4.89-7.57h8v-8h-8zm-6.34 0-1.57 7.84.77.16h.8zm-6.1-1.22h-8v6.56l6.42 1.28zm0-2.44-5.66-5.66-2.35 2.34v3.32zm3.66-3.67v-8h-3.32l-2.34 2.35zm16.1 0h8v-8h-8zm0 2.44h-8v8h8zm5.14 0v8h8v-8zm0-2.44h8v-3.74l-2.88-2.4zm-1.47-1.22h-8v3.75l2.88 2.4zm0-1.22-3.48-7.2-4.52 2.19v5.01zm7.57-3.66h8v-12.76l-11.48 5.56zm10 3.66v-8h-8v8zm2.45 0 2.97-7.43-1.43-.57h-1.54zm4.88 8.55v8h8v-8zm-1.22 0-2.97 7.42 1.43.58h1.54zm49.8-2.93v-8h-8v8zm0 2.44h-8v8h8zm3.67 0v8h8v-8zm0-2.44h8v-8h-8zm-72.02 2.93 4.73-6.45-10.2-7.48-2.39 12.42zm-1.22 6.34-7.86-1.5-.14.74v.76zm0 3.67h-8v8h8zm1.22 0v8h1.3l1.23-.41zm3.66-7.33h8v-4.05l-3.27-2.4zm75.68 3.18-2.38-7.64-5.62 1.75v5.89zm0 1.22h-8v6.32l6.15 1.46zm5.13 1.22-1.85 7.78.91.22h.94zm1.22 0v8h8v-8zm0-1.22h8v-3.32l-2.34-2.34zm-2.44-2.44 5.66-5.66-3.43-3.42-4.62 1.44zm0 4.88v-8h-8v8zm0 3.66h-8v19.31l13.66-13.65zm2.44-2.44 5.66 5.66 2.34-2.35v-3.31zm0-1.22h8v-8h-8zm17.34 7.32-7.22-3.46-5.5 11.46h12.72zm3.66 0v8h4.53l2.33-3.88zm3.66-6.1 6.86 4.11 7.27-12.11h-14.13zm-13.67 6.1v-8h-8v8zm0 1.47h-8v8h8zm5.12 0v8h8v-8zm0-1.47h8v-8h-8zm-145.26 1.96v-8h-18.08l12.16 13.38zm4.88 9.76h-8v8h8zm1.22 0v8H439l2.36-2.49zm7.57-4.88v8h8v-8zm0-2.44h8v-8h-8zm-3.66-2.44h8v-8h-8zm24.66 2.44v-8h-8v8zm-12.45 6.1-.32-8-7.68.3v7.7zm0 6.35h-8v8h8zm1.22 0v8h3.43l2.36-2.48zm10-5.13v8h8v-8zm3.67-4.88v8h8v-8zm0-2.44h8v-8h-8zm18.8 7.32v-8h-8v8zm0 1.22h-8v3.1l2.08 2.28zm2.44 2.69-5.92 5.38 2.38 2.62h3.54zm1.22 0v8h10.88l-3.24-10.39zm-1.22-3.9 7.64-2.4-1.76-5.6h-5.88zm-21.24 2.68v-8h-8v8zm0 2.44h-8v8h8zm7.57 0v8h8v-8zm0-2.44h8v-8h-8zm119.14.73v-8h-5.77l-1.82 5.47zm-1.22 3.66-7.6-2.53-.4 1.23v1.3zm0 1.22h-8v8h8zm1.22 0v8h3.31l2.35-2.34zm2.44-2.44 5.66 5.66 2.34-2.35v-3.3zm0-2.44h8v-8h-8zm-152.59 1.7 2.53-7.58-4.69-1.56-3.5 3.5zm-1.22 1.23-5.66-5.66-2.34 2.35v3.3zm0 1.22h-8v8h8zm4.88 0v8h8v-8zm0-1.22h8v-5.77l-5.47-1.82zm10.01 8.54h-8v8h8zm4.89 0v8h3.31l2.34-2.34zm2.44-2.44 5.66 5.66 2.34-2.34v-3.32zm0-1.22h8v-9.44l-9.32 1.55zm126.7 11.96-5.65-5.65-13.66 13.65h19.32zm3.67 0v8h8v-8zm0-2.44h8v-8h-8zm-1.22 0v-8h-3.31l-2.35 2.35zm-163.82 9.04v-8h-8v8zm0 2.68h-8v3.32l2.34 2.34zm2.44 2.44-5.65 5.66 2.34 2.34h3.31zm1.22 0v8h19.32l-13.66-13.65zm-1.22-1.22h-8v3.32l2.35 2.34zm0-1.22-6.14-5.12-1.86 2.23v2.9zm1.22-1.46 6.15 5.12 1.85-2.23v-2.9zm0-1.22h8v-8h-8zm373.05-76.42v8h8v-8zm0-2.44h8v-8h-8zm-1.22 0v-8h-3.31l-2.35 2.34zm-2.44 2.44-5.66-5.66-13.66 13.66h19.32zm-221.68 97.17v-8h-8v8zm0 2.44h-8v8h8zm1.22 0v8h3.31l2.35-2.34zm2.44-2.44 5.66 5.66 13.65-13.66h-19.31zm128.9-125 5.66 5.66 6.32-6.33-6.98-5.58zm-2.43 2.44v8h3.3l2.35-2.34zm-1.22 0-5.66 5.66 2.34 2.34h3.31zm-2.45-2.44h-8v3.31l2.35 2.35zm0-4.88 5-6.25-13-10.4v16.65zm64.46-73.98-5.39-5.92-2.61 2.38v3.54zm0 1.22h-8v18.1l13.38-12.17zm2.68-2.44 5.38 5.92 2.62-2.38v-3.54zm0-1.22h8V30.25l-13.38 12.17zM639.66 307.13v-8h-19.32L634 312.79zm2.44 2.44-5.66 5.66 2.34 2.34h3.32zm1.22 0v8h8v-8zm0-2.44h8v-8h-8zm8.54-65.67 5.66-5.66-2.34-2.35h-3.32zm-1.22 0v-8h-8v8zm0 2.44h-8v8h8zm3.66 0v8h19.32l-13.66-13.66zm9.28-30.28v-8h-8v8zm0 2.44h-8v3.32l2.34 2.34zm2.44 2.45-5.65 5.65 2.34 2.35h3.31zm1.22 0v8h8v-8zm0-1.22h8v-1.3l-.4-1.23zm-1.22-3.67 7.6-2.53-1.83-5.47h-5.77zm1.47-21.97v-8h-8v8zm0 1.47h-8v8h8zm5.13 0v8h8v-8zm0-1.47h8v-8h-8zm-13.68-6.1v-8h-14.13l7.27 12.11zm3.66 6.1-6.85 4.12 2.33 3.88h4.52zm3.67 0v8h12.71l-5.5-11.46zm17.33-7.32v-8h-8v8zm0 1.22h-8v3.31l2.34 2.34zm2.44 2.44-5.65 5.66 13.65 13.65V188zm0-3.66h8v-8h-8zm0-4.89 2.39-7.63-4.62-1.45-3.42 3.43zm-2.44 2.45-5.66-5.66-2.34 2.34v3.32zm0 1.22h-8v8h8zm1.22 0v8h.94l.92-.22zm5.13-1.22 1.85 7.78 6.15-1.47v-6.31zm0-1.23h8v-5.88l-5.62-1.75zm7.32-8.78v-8h-8v8zm0 2.44h-8v8h8zm3.67 0v8h8v-8zm0-2.44h8v-8h-8zm13.42-46.64-4.74-6.44-19.6 14.44h24.34zm-2.2-2.93v8h.3l.28-.02zm-13.67 0v-8h-8v8zm0 1.23h-8v7.27l7.25.69zm5.13 4.88 5.66 5.66 2.34-2.35v-3.31zm-1.22 1.22-5.66-5.66-6.74 6.74 7.81 5.47zm7.32 5.13-4.58 6.55 2.06 1.45h2.52zm2.45 0v8h.9l.9-.2zm6.34-1.47h8v-10.06l-9.8 2.27zm0 3.9h-8v8h8zm4.89-7.56v-8h-8v8zm7.56 0v8h8v-8zm0-1.22h8v-7.57l-7.55-.42zm-9.52-.73-3.72 7.08 1.4.73 1.56.15zm-4.64-2.45 3.73-7.07-1.75-.93h-1.98zm16.12-23.19-5.66-5.66-2.34 2.35v3.31zm0 1.47h-8v3.3l2.34 2.35zm2.44 2.44-5.66 5.65 5.66 5.66 5.66-5.66zm2.44-2.44 5.66 5.65 2.34-2.34v-3.31zm0-3.91h8V96.3l-2.34-2.35zm-1.22-1.22 5.66-5.66-5.66-5.65-5.66 5.65zm-39.3 44.68-2.07 7.73 10.06 2.68v-10.41zm0-.98h8v-8h-8zm-13.68 0-5.66 5.66 2.35 2.34h3.31zm-2.44-2.44h-8v3.31l2.34 2.35zm11.23-12.45.86 7.95 16.6-1.8-11.8-11.81zm-1.22-1.22h-8v3.31l2.34 2.34zm4.88-3.67.8 7.97 12.81-1.29-6.82-10.92zm-2.44-3.9h-8v2.3l1.22 1.94zm0-2.44-7.06-3.76-.94 1.76v2zm22.46-31 5.54 5.76 14.35-13.77h-19.89zm-2.68 0-7.13-3.65-5.94 11.64h13.07zm36.13-60.8v-8h-4.15l-2.4 3.4zm74.46 0 7.51 2.75 3.94-10.75h-11.45zm-41.01 69.58-6.78-4.25-.2.31-.17.34zm-18.56 26.12v-8h-8v8zm-3.66 7.33v-8h-3.73l-2.4 2.85zm-5.13 6.1h-8v21.96l14.13-16.81zm0-2.44h8v-8h-8zm-3.66 0v-8h-8v8zm0 2.44 1.57 7.85 6.43-1.3v-6.55zm-6.1 1.22.42 7.99.58-.03.57-.11zm-11.23.25v-8h-8v8zm0 2.44h-8v6.56l6.43 1.28zm6.1 1.22-1.57 7.84 4.2.84 3.03-3.02zm2.44-2.44 3.44-7.23-5.1-2.43-4 4zm5.13 2.44-3.44 7.22 1.63.78h1.8zm7.32-3.66v-8h-8v8zm2.44 0h8v-8h-8zm0 1.22 6.97 3.92 1.03-1.82v-2.1zm-9.76 17.33-6.97-3.93-.72 1.29-.22 1.45zm-16.11 26.12-5.66 5.66 6.63 6.63 5.5-7.6zm-1.23-1.22 5.66-5.65-2.34-2.35h-3.31zm-2.68 0v-8h-8v8zm0 1.22h-8v8h8zm2.68 0 7.64 2.38 3.22-10.38h-10.86zM698.5 233.9l-6.74-4.31-.08.12-.07.13zm-69.58 116.45h-8v28.03l14.8-23.8zm0-126.7-6.87-4.1-1.13 1.9v2.2zm33.7-56.65v-8h-4.55l-2.33 3.91zm3.66 0h8v-8h-8zm0 3.66 5.65 5.66 2.35-2.34v-3.32zm-1.22 1.22-5.66-5.65-13.66 13.65h19.32zm1.22 0v8h2.42l2.01-1.34zm3.66-2.44 4.44 6.66 4-2.67-.48-4.78zm-3.66-4.88h-8v8h8zm13.91-21.73v-8h-3.5l-2.39 2.59zm1.22 0h8v-8h-8zm0 2.44h-8v11.1l10.53-3.5zm3.67-1.22-1.79-7.8-.37.1-.37.11zm60.05 8.3-1.26 7.9 19.53 3.13-11.86-15.83zm-.73-2.68h8v-8h-8zm-3.66 0v-8h-3.31l-2.35 2.34zm-1.7 1.7-5.66-5.65-11.09 11.08 15.48 2.48zm-4.9-.24h8v-6.24l-6.05-1.52zm-5.85-1.46 1.94-7.76-9.94-2.49v10.25zm0 1.22-2.03 7.74 10.03 2.63v-10.37zm-14.9-3.9 2.04-7.75-1-.26h-1.03zm-7.32 0h-8v8h8zm0-2.45h8v-8h-8zm-.73 0v-8h-10.15l2.37 9.87zm1.47 6.1-7.78 1.87 1.47 6.13h6.3zm7.32 0v8h.76l.75-.14zm6.35-1.22 7.78-1.85-1.77-7.45-7.52 1.45zm1.22 5.13-7.79 1.85 1.8 7.5 7.56-1.5zm6.1-1.22v-8h-.8l-.77.16zm6.35 0v8h8v-8zm-29.79-8.79 4.44 6.66 21.99-14.66h-26.43zm-4.64 0v-8h-14.94l8.29 12.44zm.5 1.95h-8v8h8zm1.21 0v8h2.43l2.01-1.34zM418.22 32.9h74.46v-16h-74.46zm67.92-3.4q18.18 25.82 35.55 59.83l14.25-7.28q-17.79-34.83-36.71-61.75zm42.68 48.2h-2.69v16h2.69zm-8.23 13.76c7.38 7.09 14.39 16.68 20.94 29l14.13-7.52c-7.13-13.4-15.1-24.48-23.99-33.02zm20 25.24v2.44h16v-2.44zm1.22-1.8-2.44 3.9 13.56 8.49 2.45-3.9zm3.54 16.1c.98.1.52.25-.34-.4a5 5 0 0 1-1.47-1.8 5 5 0 0 1-.5-2.1h16c0-3.45-1.5-6.7-4.43-8.9-2.49-1.86-5.38-2.48-7.66-2.71zm.03-9.95-1.22 1.22 11.3 11.32 1.23-1.22zm3.57 14.83c2.48.27 3.19.96 3.35 1.13.15.17.74.92.74 3.37h16c0-5.04-1.27-10.1-4.86-14.08s-8.5-5.78-13.5-6.32zm6.44-1.16-2.44 2.45 11.3 11.3 2.45-2.43zm3.21.1h-13.67v16h13.67zm-21.67 8v2.44h16v-2.44zm8-5.56h-8.79v16h8.79zm-16.79 8v2.45h16v-2.45zm8-5.55h-7.32v16h7.32zm-9.35.26-14.9 3.9 4.06 15.48 14.9-3.9zm-4.87 11.64v-1.22h-16v1.22zm-9.9-9-10 2.45 3.79 15.54 10-2.44zm-2.45 4.57-2.44-2.45-11.31 11.32 2.44 2.44zm-8.1-4.79h-3.66v16h3.66zm-11.66 8c0 .48-.13-.61.88-1.98a6 6 0 0 1 2.3-1.87 5 5 0 0 1 2.14-.49v16a10.3 10.3 0 0 0 8.46-4.18 12.5 12.5 0 0 0 2.22-7.48zm5.32-4.34h-1.23v16h1.23zm5.74 4.08-9.76-17.34-13.94 7.86 9.76 17.33zm-8.73-13.41v-1.22h-16v1.22zm-8 6.78h2.44v-16h-2.44zm-5.56-8c0 2 .53 4.12 1.8 6.04a11.5 11.5 0 0 0 4.45 3.86c2.9 1.45 6.22 1.76 9.07 1.76v-16q-1.34-.01-1.88-.12c-.4-.06-.34-.1-.03.05a5.2 5.2 0 0 1 2.6 4.4zm18.76 10.88 5.13-2.44-6.88-14.44-5.12 2.44zm-3.97-4 2.45 2.44 11.31-11.32-2.44-2.44zm9.67 4.63 6.1-1.23-3.13-15.68-6.1 1.22zm12.54-9.07v-2.44h-16v2.44zm-8-10.44c-1.33 0-2.86-.45-4.77-3.07l-12.92 9.44c4.27 5.84 10.23 9.63 17.69 9.63zm-9.66-6.2-6.1-1.21-3.15 15.68 6.1 1.22zm.32 6.63v-2.44h-16v2.44zm-8-10.44h-3.66v16h3.66zm-11.66 8v2.44h16v-2.44zm8-5.56h-5.13v16h5.13zm-5.13 0a5.2 5.2 0 0 1 4.41 2.6c.16.3.12.36.05-.04q-.1-.53-.12-1.88h-16c0 2.85.31 6.17 1.76 9.07.78 1.56 2 3.2 3.86 4.45a11 11 0 0 0 6.04 1.8zm-3.66-7.32c2.15 0 2.99 1.14 2.15.4a23 23 0 0 1-2.95-3.57c-2.74-3.86-6.28-9.97-10.61-18.56l-14.29 7.2c4.46 8.83 8.41 15.78 11.86 20.63a38 38 0 0 0 5.34 6.23c1.6 1.44 4.56 3.67 8.5 3.67zm-11.78-22.38a2132 2132 0 0 1-28.81-46.99c-6.96-11.81-10.55-18.58-11.47-21.09l-15.02 5.5c1.52 4.17 6 12.33 12.7 23.72a2139 2139 0 0 0 29.05 47.36zm283.8 278.87-1.22-1.22-11.32 11.31 1.22 1.22zm1.11 4.73 1.22-33.45-15.99-.58-1.22 33.44zm1.23-33.74V291.5h-16v48.58zm-1.86-43.46c2.98-3.58 5.46-4.45 7.53-4.45v-16c-8.02 0-14.66 4.01-19.82 10.2zm14.19-16.89-2.45-3.66-13.3 8.88 2.43 3.66zm-1.1.78v-6.35h-16v6.35zm-6.1-14.12-10.02-2.44-3.79 15.54 10.01 2.44zm-3.91 5.33V260.5h-16v11.23zm-2.34-5.57 2.44-2.45-11.32-11.3-2.44 2.43zm3.44-12.54-2.44-3.66-13.32 8.87 2.44 3.67zm-1.1.78v-34.92h-16v34.92zm0-34.65 1.22-37.11-16-.53-1.22 37.11zm1.22-37.38c0 .39.04-.63 1.53-4.07q1.94-4.53 6.2-12.26c5.7-10.31 14.31-24.48 25.92-42.58l-13.47-8.64q-17.52 27.32-26.46 43.49a165 165 0 0 0-6.88 13.64c-1.43 3.3-2.84 7.11-2.84 10.42zm21.26-57.57 1.22 1.22 11.31-11.31-1.22-1.22zm12.53 1.22 2.44-2.44-11.31-11.32-2.44 2.45zm-3.22-16.1h-2.44v16h2.44zm4.53 11.93 37.11-65.92-13.94-7.85-37.1 65.92zM819.83 60h2.69V44h-2.69zm-5.31-8v212.4h16V52zm0 212.4c0-1.07.3-2.35 1.12-3.51a6 6 0 0 1 2.16-1.88c.46-.22.72-.24.58-.22a7 7 0 0 1-.99.06v16c2.09 0 4.8-.21 7.28-1.4a10 10 0 0 0 4.08-3.39 10 10 0 0 0 1.77-5.65zm-5.13 2.45v1.22h16v-1.22zm8 9.22q.83.01.99.05c.14.02-.12 0-.58-.22a6 6 0 0 1-2.16-1.87 6 6 0 0 1-1.12-3.52h16c0-1.9-.53-3.88-1.77-5.66a10.4 10.4 0 0 0-4.07-3.4c-2.48-1.17-5.2-1.38-7.29-1.38zm-2.87-5.56v88.13h16v-88.13zm0 88.13c0-1.5.55-3 1.56-4.17.87-1 1.75-1.37 1.98-1.46.26-.1.27-.06-.13-.01q-.54.08-1.76.09v16c2.4 0 5.18-.2 7.63-1.15 1.29-.5 2.97-1.37 4.37-2.99a9.6 9.6 0 0 0 2.35-6.3zm-6.35 2.45v2.44h16v-2.44zm8 10.44h6.35v-16h-6.35zm-1.65-8v8.79h16v-8.8zm2.62 2.87-2.69 2.44 10.76 11.84 2.69-2.44zm2.7.36h-40.78v16h40.77zm-39.68.07-8.79-1.22-2.2 15.85 8.79 1.22zm-11.83-1.05-4.88 1.22 3.88 15.52 4.88-1.22zm-2.94.98h-11.23v16h11.23zm-5.57 2.34-1.23-1.22-11.3 11.31 1.21 1.22zm-12.54-1.22-1.22 1.22 11.31 11.31 1.22-1.22zm4.44-1.12h-7.57v16h7.57zm51.45-.55v-2.68h-16v2.68zm-2.34-8.34-2.44-2.44-11.31 11.31 2.44 2.44zm-16.1 3.22v5.12h16v-5.12zm8 13.12h2.44v-16h-2.44zM459.78 41.01v1.23h16v-1.22zm2.62 7.15 2.69 2.44 10.76-11.84-2.69-2.44zm16.07-3.48v-1.22h-16v1.22zm-2.62-7.14-2.69-2.44-10.76 11.84 2.69 2.44zM779.06 348.2h-3.9v16h3.9zm-11.9 8v1.22h16v-1.22zm2.34 6.88 1.22 1.22 11.31-11.32-1.22-1.22zm12.26 1.48 2.68-2.44-10.76-11.84-2.69 2.44zM417 57.07h2.44v-16H417zm-4.46-3.95 42.24 72.02 13.8-8.1-42.24-72.01zm49.14 59.97c-3.15 0-6.42 1.37-8.49 4.48a13 13 0 0 0-1.95 7.19h16c0-.59.14.37-.74 1.69a6 6 0 0 1-2.31 2.03c-1 .5-1.91.61-2.51.61zm-2.44 3.67c-4.03 0-8.44 1.18-11.67 4.83-3.07 3.46-3.9 7.85-3.9 11.71h16c0-.86.1-1.31.14-1.47.04-.14 0 .06-.26.37a2 2 0 0 1-.44.38 2 2 0 0 1-.37.2c-.14.05-.03-.02.5-.02zm-6.69 8.59-10.99-1.22-1.76 15.9 10.98 1.22zm-19.87 6.73v1.22h16v-1.22zm0 1.22a6 6 0 0 1 1.82-4.47c.27-.24.22-.12-.6.27-1.59.73-4.42 1.68-8.83 2.79l3.88 15.52c4.7-1.18 8.7-2.42 11.68-3.8a19 19 0 0 0 4.52-2.85 10 10 0 0 0 3.53-7.46zm-11.33.7-2.44 2.43 11.32 11.32 2.44-2.45zm3.22.09h-1.47v16h1.47zm4.78 3-4.88-6.1-12.5 10 4.89 6.1zm-11.13-9.1H417v16h1.22zm6.78 8V49.07h-16V136zm376.28 218.2h2.44v-16h-2.44zm7.24-14.4-4.88-3.66-9.6 12.8 4.88 3.66zm-9.68-5.26h-2.45v16h2.45zm-10.45 8v1.22h16v-1.22zm4.43 8.38 4.88 2.44 7.15-14.31-4.88-2.44zm-2.1-9.6v-2.44h-16v2.44zm-8-10.44h-6.35v16h6.35zm-14.35 8v2.44h16v-2.44zm8 10.44h6.35v-16h-6.35zm-.44-20-3.66-3.67-11.32 11.32 3.66 3.66zm-16.91-.54-1.22 3.66 15.18 5.06 1.22-3.66zm-1.63 6.2v1.21h16v-1.22zm9.94 8.97 4.88-1.22-3.88-15.52-4.88 1.22zm42.31-22.77 7.57-3.67-6.97-14.4-7.56 3.66zm12.09-10.87v-1.22h-16v1.22zm-8-9.22h-3.66v16h3.66zm-3.66 0c-3.15 0-6.42 1.37-8.5 4.48a13 13 0 0 0-1.95 7.18h16c0-.58.15.38-.73 1.7a6 6 0 0 1-2.31 2.03c-1 .5-1.92.61-2.51.61zm-2.45 3.66h-2.68v16h2.68zm-10.68 8v1.22h16v-1.22zm8 9.22h1.22v-16h-1.22zm-11.78-18v-4.89h-16v4.89zm-13.65-10.54-2.44 2.44 11.31 11.31 2.44-2.44zm-2.44 13.75 2.44 2.44 11.31-11.31-2.44-2.44zM511.93 94.93l-1.22 1.22 11.31 11.31 1.22-1.22zm-3.57 6.88v3.9h16v-3.9zm2.35 9.56 2.44 2.44 11.31-11.31-2.44-2.44zm13.75 2.44 2.44-2.44-11.3-11.31-2.45 2.44zm4.79-8.1v-1.46h-16v1.46zm-2.35-7.12-3.66-3.66-11.31 11.31 3.66 3.67zm224.13 182.37-1.23-1.22-11.3 11.32 1.21 1.22zm1.12 4.44v-6.1h-16v6.1zm-2.08-.72 2.44-2.69-11.84-10.76-2.44 2.69zm-3.48-.07h3.9v-16h-3.9zm-2.01-2.62 2.44 2.69 11.84-10.77-2.44-2.68zm.36-2.7v2.45h16v-2.44zm1-1.44a5 5 0 0 1-3.1 2.4l5.06 15.18a21 21 0 0 0 12.03-9.8zm7.43 10v-1.23h-16v1.22zm-245-172.37v10h16v-10zm7.24 2.04c-2.32.22-5.23.82-7.74 2.62a10.9 10.9 0 0 0-4.63 9.01h16a5 5 0 0 1-.56 2.23 5 5 0 0 1-1.51 1.78q-.35.23-.55.32l-.14.06-.05.02.05-.01.13-.03.51-.07zm-12.37 11.63v1.22h16v-1.22zm8 9.22h7.57v-16h-7.57zm-.43-8c0 3.13.45 6.85 2.5 10.01a12 12 0 0 0 10.38 5.56v-16a4 4 0 0 1 3.06 1.77c.24.38.24.55.18.29a8 8 0 0 1-.12-1.63zm20.88 7.57v-3.9h-16v3.9zm-9.8 3.89 6.35 1.46 3.6-15.59-6.35-1.46zm8.15 1.67h2.44v-16h-2.44zm7.03-1.45 7.32-5.13-9.18-13.1-7.32 5.12zm8.39-17.34-1.22-1.22-11.32 11.32 1.23 1.22zm1.12 4.44v-1.22h-16v1.22zm0-1.22a5 5 0 0 1-.56 2.23 5 5 0 0 1-1.5 1.78q-.37.24-.55.32l-.15.06-.04.02.17-.04.52-.07-1.52-15.93c-2.32.22-5.22.82-7.74 2.62a10.9 10.9 0 0 0-4.63 9.01zm5.13-3.66v-1.22h-16v1.22zm-8-9.22h-13.67v16h13.67zm-11.34.34c-3.46-1.05-5.38-1.97-6.29-2.58-.42-.29-.3-.3-.04.08.32.45.77 1.36.77 2.59h-16c0 5.39 3.68 8.8 6.33 10.6 2.85 1.92 6.53 3.4 10.57 4.62zm-13.56-7.91h-2.45v16h2.45zm292.82 182.1 6.1-1.22-3.13-15.69-6.1 1.22zm12.54-9.06v-1.22h-16v1.22zm-8-9.22h-1.22v16h1.22zm-2.79.15-6.1 1.22 3.13 15.7 6.1-1.23zm-12.53 9.07v1.22h16v-1.22zm8 9.22h1.22v-16h-1.22zM526.92 125.49v4.88h16v-4.88zm2.34-.78-2.44 2.45 11.31 11.3 2.45-2.43zm3.22.1h-1.22v16h1.22zm4.43 2.35-2.44-2.45-11.31 11.32 2.44 2.44zm-3.1 9.46 6.1-4.89-9.99-12.49-6.1 4.88zm-67.25 6.15h2.69v-16h-2.69zm-3.71-3.2 3.66 4.88 12.8-9.6-3.66-4.88zm5.62-6.58-3.66 2.44 8.87 13.32 3.67-2.45zm.78 1.1h-2.69v16h2.69zm2.97 2.34-3.67-3.66-11.3 11.31 3.65 3.67zm-3.67 7.65 3.67-3.66-11.32-11.31-3.66 3.66zm-28.62.46q1.1.48 1.75.86c.45.25.68.42.78.5s-.05-.02-.27-.33a5 5 0 0 1-.8-1.91l15.68-3.14c-.69-3.46-2.92-5.76-4.62-7.12a27 27 0 0 0-6.14-3.53zm1.83-5.32-2.44 6.35 14.93 5.74 2.44-6.35zm5.03 17.22a10 10 0 0 0 8.61-4.74 13.4 13.4 0 0 0 1.83-7.17h-16c0 .73-.16-.08.6-1.3a6 6 0 0 1 2.26-2.1 6 6 0 0 1 2.7-.7zm2.44-3.9h7.56v-16h-7.56zm12-1.35 3.66-2.44-8.87-13.32-3.66 2.44zm-.77-1.1h1.22v-16h-1.22zm-4.44-2.34 2.44 2.44 11.32-11.32-2.45-2.44zm1.31-7.46-2.44 3.9 13.57 8.49 2.44-3.9zm-3.65 8.15v1.22h16v-1.22zm8 9.22h2.44v-16h-2.44zm5.56-.63a28 28 0 0 0 6.67-3.77c1.7-1.38 4.56-4.27 4.56-8.73h-16c0-1.4.47-2.46.84-3.05.34-.54.63-.74.54-.67-.06.05-.3.23-.82.51q-.74.42-2.03.97zm3.23-4.5h3.66v-16h-3.66zm-.93-1.45c3.28 2.3 3.91 4.22 3.91 5.9h16c0-8.08-4.25-14.46-10.73-19zm3.91 5.9v1.22h16v-1.22zm7.3-6.75c-4.72.43-8.75.97-11.93 1.7-1.6.36-3.16.8-4.57 1.38a14 14 0 0 0-4.57 2.9L471 167.52c-.68.68-1.16.79-.72.61.33-.14.99-.35 2.08-.6 2.18-.5 5.4-.97 9.8-1.36zm-15.41 3.63h-13.67v16h13.67zm-21.67 8a6 6 0 0 1 1.24-3.65 5 5 0 0 1 2.01-1.65c.35-.16.46-.14.15-.1q-.4.09-1.5.1v16c2.37 0 5.24-.23 7.8-1.36 1.36-.6 3-1.62 4.3-3.33a10 10 0 0 0 2-6zm-3.76-2.97-3.67 3.67 11.32 11.31 3.66-3.66zm3.5 1.47-6.35-1.22-3.02 15.7 6.35 1.23zm-7.86-1.37h-3.66v16h3.66zm-7.54 1-8.8 4.9 7.78 13.98 8.79-4.89zm-4.9 3.88h-3.67v16h3.66zm1.99 2.35-2.44-2.44-11.32 11.31 2.44 2.44zm-.1 3.21V158.2h-16v11.23zm-2.34-5.57 1.22-1.22-11.32-11.31-1.22 1.22zm1.22-12.53-1.22-1.23-11.32 11.32 1.22 1.22zm1.12 4.43v-6.1h-16v6.1zm-8 1.9h1.22v-16H417zm-4.44-2.35 2.44 2.45 11.32-11.32-2.44-2.44zm2.44-8.87-1.22 1.22 11.32 11.32 1.22-1.22zm-3.56 6.88v1.22h16v-1.22zm6.9 9.14 8.79 1.23 2.2-15.85-8.79-1.22zm17.89-6.7c0 2.2-1.04 3.75-1.8 4.51-.65.65-1.14.8-.91.7.16-.06.58-.21 1.37-.4a34 34 0 0 1 3.02-.55l-2.27-15.84a34 34 0 0 0-8.43 2.1c-1.64.7-6.98 3.3-6.98 9.48zm8.4-5.17-1.22-6.35-15.71 3.02 1.22 6.35zm-9.08 3.16h7.57v-16h-7.57zm15.57-8v-1.22h-16v1.22zm-.57-4.19-2.44-6.1-14.86 5.94 2.44 6.1zm-9.87 4.87h1.22v-16h-1.22zm6.88-2.35 1.22-1.22-11.31-11.31-1.23 1.22zm172.52 202.77c-14.1-22.7-37.25-61.43-69.47-116.28l-13.8 8.1q48.36 82.3 69.68 116.63zm-69.63-116.54a1506 1506 0 0 1-23.12-37.08 293 293 0 0 1-6.2-10.78 71 71 0 0 1-1.67-3.28l-.44-1-.14-.36-15.28 4.74c.62 2.01 1.93 4.66 3.45 7.47q2.43 4.52 6.53 11.4a1516 1516 0 0 0 23.39 37.5zm-39.21-42.13h2.68v-16h-2.68zm10.68-8v-1.22h-16v1.22zm-8-9.22h-2.68v16h2.68zm-8.34 2.34-1.22 1.22 11.31 11.31 1.23-1.22zm11.19 2.58a110 110 0 0 1-5.97-10.31c-1.42-2.93-1.33-3.61-1.33-2.97h-16c0 3.4 1.52 7.04 2.94 9.96 1.62 3.32 3.93 7.32 6.86 11.91zm-15.3-5.28h9.77v-16h-9.77zm1.77-8v2.68h16v-2.68zm8 10.68h6.35v-16h-6.35zm4.78-.15 6.1 1.22 3.14-15.7-6.1-1.21zm15.45-4.77 1.22-5.13-15.56-3.7-1.22 5.12zm-8.07.87 6.35 1.22 3.02-15.7-6.35-1.23zm7.86 1.37h7.32v-16h-7.32zm11.66-1.28 7.57-4.88-8.68-13.45-7.56 4.89zm-1.2-4.95 3.66 2.44 8.87-13.31-3.66-2.44zm8.1 3.79h1.21v-16h-1.22zm9.21-8c0 .26-.07.64-.26.98-.17.31-.3.35-.08.2.53-.41 2.04-1.2 5.27-1.91l-3.4-15.64c-4.25.93-8.36 2.37-11.56 4.81-3.51 2.67-5.97 6.61-5.97 11.56zm.7-.96 3.67 1.22 5.06-15.18-3.67-1.22zm14.2-6.37v-2.44h-16v2.44zm-8 5.56h1.22v-16h-1.22zm-4.28-2.18c5.48 5.17 6.29 8.13 6.29 9.07h16c0-7.84-5.06-14.81-11.3-20.7zm14.29 1.07c-3.46 0-6.72 1.5-8.9 4.42-1.87 2.5-2.5 5.39-2.73 7.67l15.92 1.6c.1-.98.25-.53-.4.33a5 5 0 0 1-1.8 1.48 5 5 0 0 1-2.1.5zm-8.1 19.54 3.66 2.44 8.87-13.3-3.66-2.45zm8.1 3.79h1.22v-16h-1.22zm6.87-13.66-1.22-1.22-11.31 11.31 1.22 1.22zm1.13 4.44v-3.66h-16v3.66zm-8 4.34h3.66v-16h-3.66zm-3.22-3.92 33.7 56.64 13.75-8.18-33.7-56.64zm32.57 52.55v126.71h16v-126.7zm175.52 16.8-2.44-2.43-11.31 11.31 2.44 2.44zm-8.1-4.77h-1.22v16h1.22zm-9.22 8v2.44h16v-2.44zm8 10.44h3.66v-16h-3.66zm-4.45-14.1v-2.45h-16v2.44zm-9.57-10.3-6.1 1.23 3.14 15.69 6.1-1.22zm-12.53 9.07v1.22h16v-1.22zm2.34 6.88 1.22 1.22 11.32-11.31-1.23-1.22zm8.82 3.32 4.88-1.22-3.88-15.52-4.88 1.22zm-280.75-72.27h4.88v-16h-4.88zm10.54-2.34 1.22-1.22-11.31-11.31-1.22 1.22zm-4.44 1.12h1.47v-16h-1.47zm-6.48-7.13c.46 4.24 1.46 8.51 3.69 11.93 2.52 3.87 6.54 6.43 11.58 6.43v-16c.26 0 .74.08 1.24.37.47.27.63.53.58.46a5 5 0 0 1-.54-1.37q-.39-1.26-.65-3.55zm20.93 16.02 1.22-1.22-11.31-11.31-1.22 1.22zm-12.03-4.35 2.45 7.33 15.17-5.06-2.44-7.33zm2.03 4.8v8.79h16v-8.8zm8 .79h-4.88v16h4.88zm-12.88 8v2.44h16v-2.44zm8 10.44h4.88v-16h-4.88zm-3.12-7.98.5 177.49 16-.04-.5-177.5zm8.5 169.47h-66.17v16h66.16zm-64.32.21-5.12-1.22-3.7 15.57 5.12 1.22zm-8.92-1.2-4.88 1.23 3.88 15.52 4.88-1.22zm2.72 3.33-1.22-1.22-11.32 11.31 1.22 1.22zm1.12 4.44V184.33h-16v188.72zm-.54-185.84c.6-1.53 1.15-2.04 1.33-2.18.1-.08.37-.27 1.22-.27v-16c-3.87 0-7.63 1.06-10.87 3.5a20.7 20.7 0 0 0-6.6 9.18zm2.55-2.45c4.74 0 9.99-.94 13.93-4.52l-10.77-11.84c.2-.18.2-.09-.3.05-.52.15-1.43.3-2.86.3zm8.55-2.44H438v-16h-2.44zm-.89-.73a55 55 0 0 1 7.28 3.82c.68.46.79.61.63.44a5 5 0 0 1-.67-1 6.6 6.6 0 0 1-.68-2.97h16c0-3.38-1.84-5.72-2.76-6.74a19 19 0 0 0-3.58-3 69 69 0 0 0-9.57-5.1zm17.09 7.88 3.66-1.22-5.06-15.18-3.66 1.22zm-.72-1.02a2 2 0 0 1-.56-.28 2 2 0 0 1-.6-.64c-.1-.16-.06-.16 0 .12.07.3.14.79.14 1.56h16c0-3.25-.55-6.8-2.43-9.92a14 14 0 0 0-8.85-6.4zm6.98 8.76h1.22v-16h-1.22zm6.87-2.34 2.45-2.45-11.32-11.3-2.44 2.43zm4.79-8.1v-2.44h-16v2.44zm-2.5-8.24a17 17 0 0 1-2.44-2.75c-.16-.25-.17-.31-.12-.18s.18.53.18 1.16h-16c0 3.13 1.26 5.78 2.5 7.7a32 32 0 0 0 4.87 5.67zm-10.38-9.77h-6.35v16h6.35zm-4.78.15-6.1-1.22-3.14 15.7 6.1 1.21zm.32 6.63v-2.44h-16v2.44zm-2.34 3.21 3.66-3.66-11.31-11.31-3.66 3.66zm-2-1.32h16.12v-16H448zm8.12-8v2.44h16v-2.44zm8 10.44h5.13v-16h-5.13zm13.13-8v-2.44h-16v2.44zm-2.88-8.58-1.47-1.22-10.24 12.29 1.47 1.22zm1.41 4.92V167h-16v1.22zm-4.51 5.98 7.56-3.66-6.96-14.4-7.57 3.66zm-3.92-10.86v6.1h16v-6.1zm18 11.66h2.45v-16h-2.44zm-.52-.57c.09.03.03.03-.07-.07a1 1 0 0 1-.24-.28c-.08-.12.16.2.16 1.47h16c0-3.14-.57-6.43-2.27-9.4a15 15 0 0 0-7.64-6.58zm7.85-6.88h-1.22v16h1.22zm1.75.57c-.97-.39-1.1-.68-1.03-.58l.02.03a2 2 0 0 1-.06-.57h-16c0 3.42.88 6.85 3.02 9.84a18 18 0 0 0 8.11 6.13zm38.84 4.5v2.44h16v-2.44zm8 10.44h3.66v-16h-3.66zm11.66-8v-2.44h-16v2.44zm-8-10.44h-3.66v16h3.66zm-79.88 9.42-1.22 6.34 15.71 3.03 1.22-6.35zm-1.36 7.85v3.67h16v-3.67zm8 11.67h1.22v-16h-1.22zm3.75-.41c7.48-2.5 9.13-9.75 9.13-14.92h-16a7 7 0 0 1-.1 1.27c-.03.24-.06.22.03.04.1-.2.31-.54.7-.88a4 4 0 0 1 1.18-.7zm5.86-21.37-3.66-2.68-9.46 12.9 3.66 2.68zm62.95 9.63v1.22h16v-1.22zm6.15 9 5.13 1.22 3.7-15.57-5.12-1.22zm6.98 1.44h1.22v-16h-1.22zm9.22-8v-1.22h-16v1.22zm-2.34-6.88-2.44-2.44-11.32 11.31 2.45 2.44zm-10.49-4.42-3.9 1.22 4.77 15.27 3.9-1.22zm-5.61 12.52v3.66h16v-3.66zm13.66 9.32 2.44-2.44-11.31-11.32-2.45 2.44zm4.78-8.1v-1.22h-16v1.22zm-8-9.22h-2.44v16h2.44zm17.34 23.32h3.66v-16h-3.66zm10.52-3.88 3.66-6.1-13.72-8.24-3.66 6.1zm-3.2-18.22h-1.22v16h1.22zm-1.22 0c-3.85 0-6.8 1.9-8.77 3.87a25 25 0 0 0-4.55 6.77l14.43 6.92q.56-1.15.96-1.75c.28-.42.44-.6.47-.63.04-.03-.15.17-.6.38a4.5 4.5 0 0 1-1.94.44zm-20.45 14.1v1.47h16v-1.47zm8 9.47h5.13v-16h-5.13zm13.13-8v-1.47h-16v1.47zm-8-9.47h-5.13v16h5.13zm-151.19 15.34a16 16 0 0 1 2.43 3.32c.39.78.37 1.1.37 1.06h16c0-5.87-3.18-11-6.96-15.14zm10.8 12.38h1.23v-16h-1.23zm7.03-2.49c1.3-1.37 2.2-2.1 2.74-2.45.26-.16.31-.16.19-.12-.14.05-.54.18-1.17.18v-16c-3.13 0-5.78 1.26-7.7 2.5a32 32 0 0 0-5.66 4.87zm9.76-10.4v-2.43h-16v2.44zm-8-10.43c-.58 0 .38-.15 1.7.73a6 6 0 0 1 2.03 2.32c.5 1 .61 1.9.61 2.5h-16c0 3.15 1.37 6.42 4.48 8.5a13 13 0 0 0 7.18 1.95zm-3.66-2.44h-10v16h10zm16.66 10.44c0-.65.21-1.47.72-2.18.45-.63.84-.77.65-.67-.21.1-.77.32-1.86.53q-1.6.31-4.28.43l.63 15.98c4.52-.17 8.97-.82 12.55-2.58 1.88-.92 3.82-2.3 5.3-4.36a12 12 0 0 0 2.29-7.15zm-12.45 6.1v6.35h16v-6.35zm8 14.35h1.22v-16h-1.22zm7.01-2.48c2.34-2.46 3.72-2.65 4.22-2.65v-16c-6.34 0-11.63 3.23-15.8 7.61zm12.22-10.65c0-.86.2-.04-.69 1.14a5 5 0 0 1-2 1.6c-.77.33-1.38.38-1.65.38v-16a11.2 11.2 0 0 0-9.15 4.42c-2.1 2.8-2.51 6.06-2.51 8.46zm3.66-4.88v-2.44h-16v2.44zm-8-10.44h-2.44v16h2.44zm10.8 15.32v1.22h16v-1.22zm2.08 6.6 2.44 2.69 11.84-10.76-2.44-2.69zm8.36 5.3h1.22v-16h-1.22zm8.86-10.38-1.22-3.9-15.27 4.77 1.22 3.9zm-8.86-9.52h-2.44v16h2.44zm-29.24 10.69v2.44h16v-2.44zm8 10.44h7.57v-16h-7.57zm15.57-8v-2.44h-16v2.44zm-8-10.44h-7.57v16h7.57zm111.55 6.2-1.22 3.66 15.18 5.06 1.22-3.66zm-1.63 6.2v1.21h16v-1.22zm8 9.21h1.22v-16h-1.22zm6.88-2.34 2.44-2.44-11.32-11.32-2.44 2.44zm4.78-8.1v-2.44h-16v2.44zm-8-10.44h-2.44v16h2.44zm-158.24 4.05-1.22 1.22 11.3 11.32 1.23-1.23zm-3.57 6.88v1.22h16v-1.22zm8 9.22h4.89v-16h-4.89zm12.89-8v-1.22h-16v1.22zm-5.47-8.81-3.67-1.22-5.06 15.18 3.67 1.22zm7.48 24.13h4.88v-16h-4.88zm10.54-2.34 2.44-2.44-11.32-11.31-2.44 2.44zm4.78-8.1v-1.22h-16v1.22zm-9.32-9.1a27 27 0 0 0-7.75 2.25c-1.98 1-6.25 3.76-6.25 9.3h16c0 1.78-.74 3.2-1.47 4.06a5 5 0 0 1-.82.76l-.3.2.2-.09.65-.2q.85-.25 2.37-.5zm128.03 27.84h3.66v-16h-3.66zm11.66-8v-2.44h-16v2.44zm-8-10.44h-1.22v16h1.22zm-6.88 2.35-2.44 2.44 11.32 11.31 2.44-2.44zm-166.16 14.69v2.68h16v-2.68zm2.34 8.34 2.45 2.44 11.3-11.31-2.43-2.45zm8.1 4.78h1.22v-16h-1.22zm6.88-13.65-1.22-1.22-11.31 11.31 1.22 1.22zm1.12 4.43v-1.22h-16v1.22zm-1.85 3.9 1.22-1.46-12.3-10.24-1.21 1.46zm3.07-6.58v-1.22h-16v1.22zm-8-9.22h-3.66v16h3.66zm381.05-68.42v-2.44h-16v2.44zm-8-10.44h-1.22v16h1.22zm-6.88 2.34-2.44 2.44 11.32 11.32 2.44-2.44zm3.22 16.1h3.66v-16h-3.66zm-229.68 89.17v2.44h16v-2.44zm8 10.44h1.22v-16h-1.22zm6.88-2.34 2.44-2.44-11.32-11.32-2.44 2.44zm-3.22-16.1h-3.66v16h3.66zm123.25-122.66-2.44 2.44 11.31 11.32 2.44-2.44zm3.22.1h-1.22v16h1.22zm4.43 2.34-2.44-2.44-11.31 11.32 2.44 2.44zm-.1 3.22v-4.88h-16v4.88zm-13 1.36 6.1 4.89 10-12.5-6.1-4.88zm61.46-80.22V52h16v-1.22zm13.38 7.14 2.68-2.44-10.76-11.84-2.68 2.44zm5.3-8.36v-1.22h-16v1.22zm-13.38-7.14-2.68 2.44 10.76 11.84 2.68-2.44zM634 312.8l2.44 2.44 11.31-11.32-2.44-2.44zm8.1 4.78h1.22v-16h-1.22zm9.22-8v-2.44h-16v2.44zm-8-10.44h-3.66v16h3.66zm8.54-65.68h-1.22v16h1.22zm-9.22 8v2.45h16v-2.45zm8 10.45h3.67v-16h-3.67zm9.32-13.66-2.44-2.44-11.31 11.31 2.44 2.44zm-4.38-24.62v2.44h16v-2.44zm2.34 8.1 2.45 2.44 11.31-11.31-2.44-2.44zm8.1 4.79h1.22v-16h-1.22zm9.22-8v-1.23h-16v1.23zm-.4-3.76-1.23-3.66-15.18 5.06 1.23 3.66zm-8.82-9.13h-2.44v16h2.44zm-6.53-13.97v1.46h16v-1.46zm8 9.46h5.12v-16h-5.12zm13.12-8v-1.46h-16v1.46zm-8-9.46h-5.12v16h5.12zm-12.45-6.1h-1.22v16h1.22zm-8.08 12.11 3.67 6.1 13.71-8.23-3.66-6.1zm10.52 9.99h3.67v-16h-3.67zm10.88-11.46a25 25 0 0 0-4.55-6.77 12.4 12.4 0 0 0-8.77-3.87v16a4.5 4.5 0 0 1-1.95-.44c-.43-.21-.62-.41-.59-.38s.2.2.47.63q.41.6.96 1.75zm2.12-3.86v1.22h16v-1.22zm2.34 6.87 2.45 2.44 11.31-11.31-2.44-2.44zm16.1-3.21v-3.66h-16V188zm-8-11.66h-2.44v16h2.44zm-5.65-2.54-2.45 2.44 11.32 11.31 2.44-2.44zm-4.79 8.1v1.21h16v-1.22zm8 9.21h1.22v-16h-1.22zm3.07-.21 5.13-1.22-3.7-15.57-5.13 1.22zm11.28-9v-1.23h-16v1.22zm-5.62-8.86-3.9-1.22-4.77 15.27 3.9 1.22zm-3.06-1.16v2.45h16v-2.45zm8 10.45h3.67v-16h-3.67zm11.67-8v-2.45h-16v2.45zm-8-10.45h-3.67v16h3.67zm18.17-32.19c.95-.7 2.3-1.77 3.33-3.2.8-1.12 3.62-5.77.1-10.48a9 9 0 0 0-3.98-2.97 11 11 0 0 0-2.72-.66c-1.4-.17-2.9-.13-4.24-.04l1.14 15.96c.93-.06 1.24-.03 1.15-.04-.05 0-.47-.05-1.09-.29a7 7 0 0 1-3.07-2.36 7.5 7.5 0 0 1-1.39-5.73c.26-1.5.92-2.47 1.15-2.79.45-.62.73-.72.13-.28zm-6.94-17.37h-13.68v16h13.68zm-21.68 8v1.22h16v-1.22zm7.25 9.19.64.1h.05l-.05-.01-.15-.06a4 4 0 0 1-.54-.33 5 5 0 0 1-1.51-1.78 5 5 0 0 1-.56-2.22h16a10.9 10.9 0 0 0-4.63-9.02c-2.51-1.79-5.42-2.39-7.74-2.61zm-2.12-4.3v1.22h16v-1.22zm2.34-4.44-1.22 1.22 11.32 11.32 1.22-1.23zm-.15 13.43 7.33 5.13 9.17-13.1-7.32-5.14zm11.91 6.58h2.45v-16h-2.45zm4.24-.21 6.35-1.46-3.6-15.6-6.34 1.47zm-3.45-9.26v3.9h16v-3.9zm8 11.9c4.08 0 7.96-1.78 10.39-5.55 2.04-3.16 2.5-6.89 2.5-10.01h-16c0 .85-.08 1.37-.13 1.63s-.06.09.18-.3a4 4 0 0 1 1.53-1.34c.71-.37 1.3-.42 1.53-.42zm4.89-7.56h7.56v-16h-7.56zm15.56-8v-1.22h-16v1.22zm-7.55-9.21a235 235 0 0 1-9.2-.7l-1.53 15.92q5.26.5 9.84.76zm-6.24.18-4.64-2.45-7.45 14.16 4.64 2.44zm-8.37-3.37h-2.44v16h2.44zm8.12-15.19v1.47h16v-1.47zm2.34 7.12 2.44 2.44 11.32-11.31-2.45-2.44zm13.76 2.44 2.44-2.44-11.32-11.31-2.44 2.44zm4.78-8.1v-3.9h-16v3.9zm-2.34-9.56-1.22-1.22-11.32 11.32 1.22 1.22zm-12.54-1.22-3.66 3.66 11.31 11.32 3.67-3.66zm-25.65 50.34v-.98h-16v.98zm-8-8.98H683.6v16h13.67zm-8.01 2.34-2.44-2.44-11.32 11.31 2.44 2.45zm-.1 3.22c0-2.45.6-3.2.75-3.37.15-.18.87-.86 3.34-1.13l-1.72-15.9c-5.01.54-9.92 2.34-13.5 6.31-3.6 3.99-4.87 9.05-4.87 14.09zm8.89-18.11-1.22-1.22-11.32 11.31 1.22 1.22zm1.12 4.44a5 5 0 0 1-.5 2.08 5 5 0 0 1-1.48 1.81c-.86.65-1.32.5-.34.4l-1.6-15.92c-2.28.23-5.17.86-7.66 2.72a11 11 0 0 0-4.42 8.9zm3.67-7.9-2.45-3.91-13.56 8.48 2.44 3.9zm-1.23.33v-2.44h-16v2.44zm-.94 1.31c6.55-12.31 13.56-21.9 20.94-28.99L710.53 79.2c-8.9 8.54-16.86 19.62-23.98 33.02zm15.4-42.76h-2.68v16h2.68zm4.44 11.64q17.38-34.01 35.55-59.83l-13.08-9.2q-18.94 26.92-36.72 61.75zm29.01-56.43h74.46v-16h-74.46zm66.95-10.75c-.92 2.5-4.5 9.28-11.46 21.09a2131 2131 0 0 1-28.82 46.99l13.55 8.5a2139 2139 0 0 0 29.05-47.37c6.7-11.38 11.18-19.54 12.7-23.71zm-40.65 68.73c-4.33 8.59-7.86 14.7-10.6 18.56a23 23 0 0 1-2.96 3.56c-.84.74 0-.4 2.15-.4v16c3.94 0 6.9-2.23 8.5-3.66a38 38 0 0 0 5.35-6.24c3.44-4.84 7.4-11.8 11.85-20.62zm-19.4 29.72q-.02 1.35-.13 1.9c-.06.38-.1.33.05.02a4.6 4.6 0 0 1 1.57-1.7 5 5 0 0 1 2.84-.9v16c2.01 0 4.13-.52 6.04-1.8a11.5 11.5 0 0 0 3.86-4.45c1.45-2.89 1.76-6.22 1.76-9.07zm-1.8 2.18-5.12 6.1 12.25 10.3 5.13-6.1zm9 11.25v-2.44h-16v2.44zm-8-10.44h-3.66v16h3.66zm-11.66 8v2.44h16v-2.44zm6.43-5.4-6.1 1.22 3.14 15.69 6.1-1.23zm-4.95 1.07q-4.36.24-10.81.24v16q6.72 0 11.65-.26zm-18.81 8.24v2.44h16v-2.44zm6.43 10.28 6.1 1.22 3.14-15.69-6.1-1.22zm13.33-.97 2.44-2.44-11.32-11.31-2.44 2.44zm-6.66-.87 5.13 2.44 6.88-14.45-5.13-2.44zm8.57 3.22c2.85 0 6.18-.32 9.07-1.76 1.56-.78 3.2-2 4.45-3.87a11 11 0 0 0 1.8-6.04h-16a5.2 5.2 0 0 1 2.6-4.4c.3-.16.36-.12-.03-.05q-.54.1-1.9.12zm7.32-3.67h2.44v-16h-2.44zm-5.56-8v1.22h16v-1.22zm1.03-2.7-9.76 17.33 13.94 7.86 9.76-17.34zm-10.7 20.07c.07-.46.1-.22-.56 1.13a60 60 0 0 1-2.74 4.83q-3.78 6.16-11.38 16.66l12.95 9.38a303 303 0 0 0 12.05-17.64q2.14-3.46 3.5-6.19c.8-1.64 1.69-3.7 2-5.8zm-2.55 21.66-1.22-1.22-11.31 11.3 1.22 1.23zm-6.88-3.57h-2.68v16h2.68zm-10.68 8v1.22h16v-1.22zm8 9.22h2.68v-16h-2.68zm-4.96-10.37-.14.37-.44 1a72 72 0 0 1-1.68 3.27q-2.17 4.06-6.18 10.78a1501 1501 0 0 1-23.13 37.09l13.48 8.61a1516 1516 0 0 0 23.39-37.5q4.1-6.88 6.54-11.4c1.5-2.81 2.82-5.46 3.44-7.48zm-31.72 52.76q-48.34 82.26-69.48 116.29l13.59 8.44q21.33-34.33 69.68-116.62zm-54.7 120.5v-126.7h-16v126.7zm-1.12-122.62 33.7-56.64-13.76-8.18-33.7 56.64zM662.6 175h3.67v-16h-3.67zm-4.33-8v3.66h16V167zm2.34-2-1.22 1.23 11.31 11.31 1.22-1.22zm4.44 14.88h1.22v-16h-1.22zm5.65-1.34 3.67-2.44-8.88-13.31-3.66 2.44zm7.19-9.9c-.23-2.27-.85-5.17-2.72-7.66a11 11 0 0 0-8.9-4.42v16a5 5 0 0 1-2.1-.5 5 5 0 0 1-1.8-1.48c-.65-.86-.5-1.31-.4-.34zm-3.62-4.08c0 .21.06-1.05 2.21-4.41 1.97-3.07 5.1-7.02 9.6-11.9l-11.79-10.83c-4.79 5.2-8.6 9.93-11.28 14.1-2.49 3.88-4.74 8.43-4.74 13.04zm5.91-13.73h1.22v-16h-1.22zm-6.78-8v2.44h16v-2.44zm10.53 10.03 3.67-1.22-5.06-15.18-3.67 1.22zm2.92-1a45 45 0 0 1 6.18-1.05c1.61-.13 2.21 0 2.18 0l4.12-15.46c-4.53-1.21-10.33-.4-16.05.9zm64.67-4.3c.44.58.67 1.14.77 1.53a3 3 0 0 1 .1.58h-16c0 2.2.46 4.99 2.33 7.48zm-7.13-5.9h-3.66v16h3.66zm-9.32 2.35-1.7 1.7 11.3 11.32 1.72-1.7zm2.69 15.27 6.1.97 2.53-15.8-6.1-.97zm-1.68-15.9-5.86-1.47-3.88 15.52 5.86 1.46zm-15.8 6.29v1.22h16v-1.22zm10.03-6.52-14.9-3.9-4.05 15.47 14.89 3.9zm-16.92-4.17h-7.33v16h7.33zm.67 8v-2.44h-16v2.44zm-8-10.44h-.73v16h.73zm-8.5 9.87 1.46 6.1 15.55-3.73-1.46-6.1zm9.23 12.23h7.33v-16h-7.33zm8.84-.14 6.35-1.22-3.02-15.71-6.35 1.22zm-2.95-7.22 1.23 5.12 15.56-3.7-1.22-5.13zm10.58 11.11 6.1-1.22-3.14-15.69-6.1 1.22zm4.53-1.06h6.35v-16h-6.35zm14.35-8v-2.2h-16v2.2zm-37.79-16.79h-4.64v16h4.64zm-11.3 12.44a4.7 4.7 0 0 1-.85-2.49h16c0-1.8-.35-4.17-1.83-6.39zm7.15 5.51h1.22v-16h-1.22zm5.66-1.34 2.93-1.95-8.87-13.32-2.93 1.96zM332.32 0a35918 35918 0 0 0-33.74 99.77 12314 12314 0 0 1-34.22 100.26 35848 35848 0 0 0-33.74 99.77 35848 35848 0 0 0-33.74 99.78H.71a35875 35875 0 0 1 33.74-99.78 35881 35881 0 0 1 33.74-99.77A12295 12295 0 0 0 102.4 99.77 35918 35918 0 0 1 136.15 0z"/><mask id="a" width="335" height="368" x="66" y="17" fill="#000" maskUnits="userSpaceOnUse"><path fill="#fff" d="M66 17h335v368H66z"/><path d="M266.7 24.9 390.48 375h-90.33q-20.51-74.46-23.44-74.46h-96.93l18.8-64.7h59.57v-1.22q-24.9-78.37-36.13-128.9h-1.22q0 14.64-49.56 179.93-14.16 49.31-18.8 57.12H150v2.44l2.44 3.67-7.32 26.12h-1.22l-3.67-1.22-6.34 1.22h-6.1l-3.91-1.22-6.1 1.22h-16.12l-7.57-1.22-3.66 1.22v-1.22L89.21 375H74.3v-16.11l1.23-7.57-1.22-3.66 1.22 1.22h1.22l1.22-1.22v-1.22h-3.66v-16.12l2.44-2.44h2.44l3.9 1.22v-1.22l-1.21-3.66h-2.7l-1.21 1.22-3.66-1.22 1.22-10.01h1.22l10-32.23 3.67 2.44 1.22-1.22v-1.22l-3.66-2.68 7.32-22.22h1.47q0 2.44 3.66 2.44v7.57l2.44-2.69v-10.98q0-3.9 7.33-3.9v-1.23l-1.23-3.66h-2.44q-4.15 0-7.32 12.45h-2.44v-1.22l7.32-23.68h4.88v2.44h3.91v-3.66l-2.68-3.66 2.68-7.57-1.22-1.22h-1.46q0 8.79-2.45 8.79h-1.22l27.35-82.04h1.22v2.45h2.44l-2.44-3.67q1.46-10 5.12-10l-1.46-1.23v-1.22L176.12 24.9zM152.44 132.81v2.69l5.13 1.22v-1.22l-3.9-2.69zM129 172.61v2.44l6.1-1.22v-1.22zm-1.22 22.46q0 7.32-5.12 7.32l1.22 1.22v1.22q-3.66 0-3.66 5.13h4.88q0-10 5.13-10v-4.9zm-13.67 17.33v1.22l2.44 2.44 1.22-1.22v-2.44zM150 227.3l-1.22 1.22v1.22h3.66zm-13.67 17.33q3.42 4.88 6.35 4.88v7.57h2.44l2.44-4.88q-2.44-5.13-7.33-7.57zm-16.12 10v1.23l2.45-2.44v-1.22zm-24.9 14.9v1.22l6.35 2.44-1.22-3.66zm42.24 0v4.88l1.22-1.22h1.46l-1.46-3.66zm-27.35 7.33v2.44h5.13v-2.44zm16.36 0-1.46 1.22v1.22l3.9 2.68h1.23v-1.22zm-5.12 12.45v2.44h8.79v-1.22l-3.67-1.22v1.22l-1.46-1.22zm-18.56 4.88v5.13h3.66q0-2.44 3.67-2.44v-2.7l-6.1 1.47zM86.77 314.2q0 2.44-3.66 2.44l2.44 2.44h1.22l4.88-2.44v-2.44zm7.32 6.1q-4.88 0-4.88 3.9h4.88v-2.68l3.9-1.22-1.21-3.66-1.47 1.22H94.1zm53.47 6.35q0 2.44-3.66 2.44 4.88 4.4 4.88 8.55H150l2.44-2.44v-1.23q0-6.1-4.88-7.32m-22.46 2.44v1.22l1.46 3.66H129v-4.88zM119 339.1l-2.45 9.77 2.44 7.57-8.78 3.66 1.46 3.66h2.44q0-2.69 4.88-4.88h6.1v2.44q3.42 0 5.13 7.57h3.67l-2.44-8.8q3.66 0 3.66-3.65l-2.44-7.57v-1.22h2.44v-3.67h-2.44l-2.44 2.45v1.22l1.22 11.23-11.23-8.8v-4.87l2.44-3.67v-1.22zm-16.12 13.43V354l6.1 2.45q0-2.44 3.91-2.45v-1.46l-2.69-2.44h-4.88zm-24.9 6.35v3.66q5.13-1.71 5.13-3.66z"/></mask><path fill="#193b5c" d="M266.7 24.9 390.48 375h-90.33q-20.51-74.46-23.44-74.46h-96.93l18.8-64.7h59.57v-1.22q-24.9-78.37-36.13-128.9h-1.22q0 14.64-49.56 179.93-14.16 49.31-18.8 57.12H150v2.44l2.44 3.67-7.32 26.12h-1.22l-3.67-1.22-6.34 1.22h-6.1l-3.91-1.22-6.1 1.22h-16.12l-7.57-1.22-3.66 1.22v-1.22L89.21 375H74.3v-16.11l1.23-7.57-1.22-3.66 1.22 1.22h1.22l1.22-1.22v-1.22h-3.66v-16.12l2.44-2.44h2.44l3.9 1.22v-1.22l-1.21-3.66h-2.7l-1.21 1.22-3.66-1.22 1.22-10.01h1.22l10-32.23 3.67 2.44 1.22-1.22v-1.22l-3.66-2.68 7.32-22.22h1.47q0 2.44 3.66 2.44v7.57l2.44-2.69v-10.98q0-3.9 7.33-3.9v-1.23l-1.23-3.66h-2.44q-4.15 0-7.32 12.45h-2.44v-1.22l7.32-23.68h4.88v2.44h3.91v-3.66l-2.68-3.66 2.68-7.57-1.22-1.22h-1.46q0 8.79-2.45 8.79h-1.22l27.35-82.04h1.22v2.45h2.44l-2.44-3.67q1.46-10 5.12-10l-1.46-1.23v-1.22L176.12 24.9zM152.44 132.81v2.69l5.13 1.22v-1.22l-3.9-2.69zM129 172.61v2.44l6.1-1.22v-1.22zm-1.22 22.46q0 7.32-5.12 7.32l1.22 1.22v1.22q-3.66 0-3.66 5.13h4.88q0-10 5.13-10v-4.9zm-13.67 17.33v1.22l2.44 2.44 1.22-1.22v-2.44zM150 227.3l-1.22 1.22v1.22h3.66zm-13.67 17.33q3.42 4.88 6.35 4.88v7.57h2.44l2.44-4.88q-2.44-5.13-7.33-7.57zm-16.12 10v1.23l2.45-2.44v-1.22zm-24.9 14.9v1.22l6.35 2.44-1.22-3.66zm42.24 0v4.88l1.22-1.22h1.46l-1.46-3.66zm-27.35 7.33v2.44h5.13v-2.44zm16.36 0-1.46 1.22v1.22l3.9 2.68h1.23v-1.22zm-5.12 12.45v2.44h8.79v-1.22l-3.67-1.22v1.22l-1.46-1.22zm-18.56 4.88v5.13h3.66q0-2.44 3.67-2.44v-2.7l-6.1 1.47zM86.77 314.2q0 2.44-3.66 2.44l2.44 2.44h1.22l4.88-2.44v-2.44zm7.32 6.1q-4.88 0-4.88 3.9h4.88v-2.68l3.9-1.22-1.21-3.66-1.47 1.22H94.1zm53.47 6.35q0 2.44-3.66 2.44 4.88 4.4 4.88 8.55H150l2.44-2.44v-1.23q0-6.1-4.88-7.32m-22.46 2.44v1.22l1.46 3.66H129v-4.88zM119 339.1l-2.45 9.77 2.44 7.57-8.78 3.66 1.46 3.66h2.44q0-2.69 4.88-4.88h6.1v2.44q3.42 0 5.13 7.57h3.67l-2.44-8.8q3.66 0 3.66-3.65l-2.44-7.57v-1.22h2.44v-3.67h-2.44l-2.44 2.45v1.22l1.22 11.23-11.23-8.8v-4.87l2.44-3.67v-1.22zm-16.12 13.43V354l6.1 2.45q0-2.44 3.91-2.45v-1.46l-2.69-2.44h-4.88zm-24.9 6.35v3.66q5.13-1.71 5.13-3.66z"/><path fill="#fcc309" d="m266.7 24.9 6.6-2.33-1.65-4.67h-4.95zM390.48 375v7h9.9l-3.3-9.33zm-90.33 0-6.75 1.86 1.41 5.14h5.34zm-120.37-74.46-6.72-1.96-2.6 8.96h9.32zm18.8-64.7v-7h-5.25l-1.47 5.05zm59.57 0v7h7v-7zm0-1.22h7v-1.09l-.32-1.03zm-36.13-128.9 6.83-1.53-1.21-5.48h-5.62zm-1.22 0v-7h-7v7zm-49.56 179.93-6.7-2.02-.02.04v.04zm-18.8 57.12v7h3.99l2.03-3.42zm-2.44 0v-7h-7v7zm0 2.44h-7v2.12l1.18 1.77zm2.44 3.67 6.74 1.89.87-3.1-1.78-2.68zM145.12 375v7h5.3l1.44-5.11zm-1.22 0-2.22 6.64 1.08.36h1.14zm-3.67-1.22 2.22-6.64-1.74-.58-1.8.35zM133.9 375v7h.66l.66-.13zm-6.1 0-2.1 6.68 1.03.32h1.06zm-3.91-1.22 2.09-6.68-1.71-.54-1.76.36zm-6.1 1.22v7h.69l.68-.14zm-16.12 0-1.11 6.91.55.09h.56zm-7.57-1.22 1.12-6.91-1.7-.28-1.63.55zM90.43 375h-7v9.71l9.21-3.07zm0-1.22h7v-16.9l-11.95 11.95zM89.21 375v7h2.9l2.05-2.05zm-14.9 0h-7v7h7zm0-16.11-6.9-1.12-.1.56v.56zm1.23-7.57 6.9 1.11.28-1.7-.54-1.63zm-1.22-3.66 4.95-4.95-11.6 7.16zm1.22 1.22-4.95 4.95 2.05 2.05h2.9zm1.22 0v7h2.9l2.05-2.05zm1.22-1.22 4.95 4.95 2.05-2.05v-2.9zm0-1.22h7v-7h-7zm-3.66 0h-7v7h7zm0-16.12-4.95-4.95-2.05 2.05v2.9zm2.44-2.44v-7h-2.9l-2.05 2.05zm2.44 0 2.09-6.68-1.02-.32H79.2zm3.9 1.22-2.08 6.68 9.09 2.84v-9.52zm0-1.22h7v-1.13l-.35-1.08zm-1.21-3.66 6.64-2.21-1.6-4.8h-5.04zm-2.7 0v-7h-2.9l-2.04 2.05zm-1.21 1.22-2.21 6.64 4.1 1.37 3.06-3.06zm-3.66-1.22-6.95-.85-.7 5.68 5.43 1.81zm1.22-10.01v-7h-6.2l-.75 6.15zm1.22 0v7h5.15l1.53-4.92zm10-32.23 3.89-5.82-7.79-5.2-2.78 8.95zm3.67 2.44-3.88 5.83 4.77 3.18 4.06-4.06zm1.22-1.22 4.95 4.95 2.05-2.05v-2.9zm0-1.22h7v-3.54l-2.86-2.1zm-3.66-2.68-6.65-2.2-1.6 4.84 4.1 3zm7.32-22.22v-7h-5.06l-1.59 4.8zm1.47 0h7v-7h-7zm3.66 2.44h7v-7h-7zm0 7.57h-7v18.1l12.18-13.4zm2.44-2.69 5.18 4.71 1.82-2v-2.7zm7.33-14.89v7h7v-7zm0-1.22h7v-1.13l-.36-1.08zm-1.23-3.66 6.65-2.21-1.6-4.8h-5.05zm-9.76 12.45v7h5.44l1.34-5.27zm-2.44 0h-7v7h7zm0-1.22-6.69-2.07-.31 1.01v1.06zm7.32-23.68v-7h-5.16l-1.53 4.93zm4.88 0h7v-7h-7zm0 2.44h-7v7h7zm3.91 0v7h7v-7zm0-3.66h7v-2.3l-1.35-1.84zm-2.68-3.66-6.6-2.35-1.24 3.5 2.19 2.98zm2.68-7.57 6.6 2.34 1.48-4.17-3.13-3.12zm-1.22-1.22 4.95-4.95-2.05-2.05h-2.9zm-1.46 0v-7h-7v7zm-3.67 8.79-6.64-2.22-3.07 9.22h9.71zm27.35-82.04v-7h-5.05l-1.6 4.79zm1.22 0h7v-7h-7zm0 2.45h-7v7h7zm2.44 0v7h13.08l-7.26-10.89zm-2.44-3.67-6.93-1.01-.39 2.66 1.5 2.24zm5.12-10v7h19.34l-14.85-12.38zm-1.46-1.23h-7v3.28l2.52 2.1zm0-1.22-6.6-2.31-.4 1.12v1.2zM176.12 24.9v-7h-4.96l-1.64 4.69zm-23.68 107.91v-7h-7v7zm0 2.69h-7v5.53l5.38 1.28zm5.13 1.22-1.62 6.8 8.62 2.06v-8.86zm0-1.22h7v-3.68l-3.04-2.09zm-3.9-2.69 3.96-5.77-1.8-1.23h-2.17zM129 172.61v-7h-7v7zm0 2.44h-7v8.54l8.38-1.68zm6.1-1.22 1.38 6.86 5.63-1.12v-5.74zm0-1.22h7v-7h-7zm-7.32 22.46v-7h-7v7zm-5.12 7.32v-7h-16.9l11.95 11.95zm1.22 1.22h7v-2.9l-2.05-2.05zm0 1.22v7h7v-7zm-3.66 5.13h-7v7h7zm4.88 0v7h7v-7zm5.13-10v7h7v-7zm0-4.9h7v-7h-7zM114.1 212.4v-7h-7v7zm0 1.22h-7v2.9l2.05 2.05zm2.44 2.44-4.95 4.95 4.95 4.95 4.95-4.95zm1.22-1.22 4.95 4.95 2.05-2.05v-2.9zm0-2.44h7v-7h-7zM150 227.3l4.95-4.96-4.95-4.95-4.95 4.96zm-1.22 1.22-4.95-4.95-2.05 2.05v2.9zm0 1.22h-7v7h7zm3.66 0v7h16.9l-11.95-11.95zm-16.11 14.89v-7h-13.45l7.71 11.01zm6.35 4.88h7v-7h-7zm0 7.57h-7v7h7zm2.44 0v7h4.32l1.94-3.87zm2.44-4.88 6.26 3.13 1.53-3.06-1.47-3.08zm-7.33-7.57 3.14-6.26-1.48-.74h-1.66zm-20.01 10-4.95-4.94-2.05 2.05v2.9zm0 1.23h-7v16.9l11.95-11.95zm2.44-2.44 4.95 4.95 2.05-2.05v-2.9zm0-1.22h7v-16.9l-11.95 11.95zM95.3 269.53v-7h-7v7zm0 1.22h-7v4.81l4.49 1.72zm6.35 2.44-2.51 6.54 13.84 5.32-4.69-14.07zm-1.22-3.66 6.64-2.21-1.6-4.79h-5.04zm37.1 0v-7h-7v7zm0 4.88h-7v16.9l11.96-11.95zm1.23-1.22v-7h-2.9l-2.05 2.05zm1.46 0v7h10.34l-3.84-9.6zm-1.46-3.66 6.5-2.6-1.76-4.4h-4.74zm-28.56 7.32v-7h-7v7zm0 2.45h-7v7h7zm5.12 0v7h7v-7zm0-2.45h7v-7h-7zm11.23 0 5.1-4.78-4.5-4.82-5.08 4.23zm-1.46 1.23-4.48-5.38-2.52 2.1v3.28zm0 1.22h-7v3.68l3.03 2.08zm3.9 2.68-3.96 5.77 1.79 1.23H129zm1.23 0v7h7v-7zm0-1.22h7V278l-1.9-2.02zm-8.8 8.55v-7h-7v7zm0 2.44h-7v7h7zm8.8 0v7h7v-7zm0-1.22h7v-5.05l-4.8-1.6zm-3.67-1.22 2.22-6.64-9.22-3.08v9.72zm0 1.22-4.48 5.37 11.48 9.57v-14.94zm-1.46-1.22 4.48-5.38-1.95-1.62h-2.53zm-22.22 4.88 5.38-4.48-12.38-14.86v19.34zm0 5.13h-7v7h7zm3.66 0v7h7v-7zm3.67-2.45v7h7v-7zm0-2.68h7v-8.88l-8.64 2.07zm-6.1 1.46-5.39 4.49 2.79 3.34 4.23-1.02zm-17.34 18.56v-7h-7v7zm-3.66 2.44v-7H66.2l11.95 11.95zm2.44 2.44-4.95 4.95 2.05 2.05h2.9zm1.22 0v7h1.65l1.48-.74zm4.88-2.44 3.13 6.26 3.87-1.93v-4.33zm0-2.44h7v-7h-7zm2.44 6.1v7h7v-7zm-4.88 3.9h-7v7h7zm4.88 0v7h7v-7zm0-2.68L92 314.85l-4.9 1.54v5.14zm3.9-1.22 2.1 6.68 6.8-2.12-2.25-6.77zm-1.21-3.66 6.64-2.21-3.24-9.73-7.88 6.56zm-1.47 1.22v7h2.54l1.94-1.62zm-1.22 0v-7h-7v7zm53.47 8.79 1.7-6.8-8.7-2.17v8.97zm-3.66 2.44v-7h-18.24l13.55 12.2zm4.88 8.55h-7v7h7zm1.22 0v7h2.9l2.05-2.05zm2.44-2.45 4.95 4.95 2.05-2.05v-2.9zm-27.34-6.1v-7h-7v7zm0 1.22h-7v1.35l.5 1.25zm1.46 3.66-6.5 2.6 1.76 4.4h4.74zm2.44 0v7h7v-7zm0-4.88h7v-7h-7zm-10 10.01 2.2-6.64-7.16-2.39-1.84 7.33zm-2.45 9.77-6.79-1.7-.48 1.94.61 1.9zm2.44 7.57 2.7 6.46 5.94-2.48-1.97-6.13zm-8.78 3.66-2.7-6.46-6.37 2.65 2.57 6.4zm1.46 3.66-6.5 2.6 1.76 4.4h4.74zm2.44 0v7h7v-7zm4.88-4.88v-7h-1.5l-1.37.61zm6.1 0h7v-7h-7zm0 2.44h-7v7h7zm5.14 7.57-6.83 1.54 1.23 5.46h5.6zm3.66 0v7h9.2l-2.46-8.88zm-2.44-8.8v-7h-9.21l2.46 8.88zm3.66-3.66h7v-1.1l-.34-1.04zm-2.44-7.56h-7v1.1l.33 1.05zm0-1.22v-7h-7v7zm2.44 0v7h7v-7zm0-3.67h7v-7h-7zm-2.44 0v-7h-2.9l-2.05 2.05zm-2.44 2.45-4.95-4.95-2.05 2.05v2.9zm0 1.22h-7v.38l.04.37zm1.22 11.23-4.32 5.5 13.07 10.24-1.8-16.5zm-11.23-8.8h-7v3.42l2.68 2.1zm0-4.87-5.83-3.89-1.17 1.77v2.12zm2.44-3.67 5.82 3.89 1.18-1.77v-2.12zm0-1.22h7v-5.04l-4.79-1.6zm-19.78 12.2-4.95-4.94-2.05 2.05v2.9zm0 1.47h-7v4.74l4.4 1.76zm6.1 2.45-2.6 6.5 9.6 3.84v-10.34zm3.91-2.45v7h7v-7zm0-1.46h7v-3.1l-2.3-2.08zm-2.68-2.44 4.7-5.18-2-1.82h-2.7zm-4.89 0v-7h-2.9l-2.05 2.05zm-27.34 8.79v-7h-7v7zm0 3.66h-7v9.71l9.21-3.07zm5.13-3.66h7v-7h-7zm177-331.65 123.78 350.1 13.2-4.67L273.3 22.57zM390.48 368h-90.33v14h90.33zm-83.59 5.14q-10.26-37.27-16.18-56.09a235 235 0 0 0-4.92-14.42 38 38 0 0 0-1.94-4.3c-.3-.56-.78-1.35-1.41-2.08a8 8 0 0 0-1.64-1.46 7.4 7.4 0 0 0-4.1-1.25v14c-1.8 0-3.08-.7-3.68-1.11a6 6 0 0 1-1.17-1.02c-.3-.35-.39-.55-.27-.33.21.37.6 1.2 1.18 2.67a231 231 0 0 1 4.6 13.5q5.78 18.42 16.04 55.6zm-30.18-79.6h-96.92v14h96.92zm-90.2 8.95 18.8-64.7-13.45-3.9-18.8 64.7zm12.07-59.65h59.57v-14h-59.57zm66.57-7v-1.22h-14v1.22zm-.32-3.34q-24.85-78.21-35.97-128.3l-13.67 3.03q11.33 50.98 36.3 129.5zm-42.8-133.8h-1.23v14h1.22zm-8.23 7c0 .52-.14 1.97-.66 4.75a223 223 0 0 1-2.25 10.38q-3.04 12.89-9.23 35.32-12.35 44.87-37.12 127.47l13.4 4.03q24.8-82.68 37.22-127.78 6.21-22.56 9.35-35.81 1.57-6.64 2.4-11.07c.52-2.8.9-5.36.9-7.29zm-49.29 178q-7.05 24.6-11.7 38.69c-3.2 9.7-5.3 14.98-6.39 16.8l12.04 7.15c2.01-3.4 4.58-10.23 7.65-19.58q4.76-14.47 11.86-39.2zm-12.07 52.06H150v14h2.44zm-9.44 7v2.44h14v-2.44zm1.18 6.33 2.44 3.66 11.65-7.77-2.45-3.66zm1.52-2.11-7.32 26.12 13.48 3.78 7.32-26.12zm-.58 21.01h-1.22v14h1.22zm.99.36-3.66-1.22-4.43 13.28 3.66 1.22zm-7.2-1.46-6.35 1.23 2.65 13.74 6.35-1.22zm-5.02 1.1h-6.1v14h6.1zm-4.02.32-3.9-1.22-4.18 13.36 3.9 1.22zm-7.37-1.4-6.1 1.22 2.75 13.72 6.1-1.22zm-4.73 1.08h-16.11v14h16.11zm-15 .09-7.56-1.22-2.23 13.82 7.57 1.22zm-10.9-.95-3.65 1.22 4.42 13.28 3.66-1.22zm5.56 7.86v-1.22h-14V375zm-11.95-6.17-1.22 1.22 9.9 9.9 1.22-1.22zm3.73-.83H74.3v14h14.9zm-7.9 7v-16.11h-14V375zm-.08-15 1.22-7.57-13.82-2.23-1.22 7.57zm.95-10.9-1.22-3.66-13.28 4.43 1.22 3.66zm-12.81 3.5 1.22 1.23 9.9-9.9-1.22-1.22zm6.17 3.28h1.22v-14h-1.22zm6.17-2.05 1.22-1.22-9.9-9.9-1.22 1.22zm3.27-6.17v-1.22h-14v1.22zm-7-8.22h-3.66v14h3.66zm3.34 7v-16.12h-14v16.12zm-2.05-11.17 2.44-2.44-9.9-9.9-2.44 2.44zm-2.51-.39h2.44v-14h-2.44zm.35-.32 3.9 1.22 4.18-13.36-3.9-1.22zm13-5.46v-1.22h-14v1.22zm-.36-3.43L88.53 322l-13.29 4.43 1.22 3.66zm-7.86-8.45h-2.7v14h2.7zm-7.64 2.05-1.22 1.22 9.9 9.9 1.22-1.22zm5.94-.47-3.66-1.22-4.43 13.28 3.67 1.22zm1.08 6.27 1.22-10.01-13.9-1.7-1.22 10.01zm-5.73-3.86h1.22v-14h-1.22zm7.9-4.93 10.01-32.22-13.37-4.15-10 32.22zm-.55-28.47 3.66 2.44 7.76-11.65-3.66-2.44zm12.49 1.56 1.22-1.22-9.9-9.9-1.22 1.22zm3.27-6.17v-1.22h-14v1.22zm-2.86-6.86-3.66-2.69-8.28 11.3 3.66 2.68zm-1.15 5.15 7.32-22.22-13.3-4.38-7.32 22.21zm.67-17.41h1.47v-14H95.3zm-5.53-7a9 9 0 0 0 4.03 7.65 12 12 0 0 0 6.63 1.8v-14c-.66 0 .06-.16 1.14.56a5 5 0 0 1 1.69 1.93c.42.83.5 1.59.5 2.06zm3.66 2.44v7.57h14v-7.57zm12.18 12.28 2.44-2.69-10.36-9.41-2.44 2.68zm4.26-7.4v-10.98h-14v10.98zm0-10.98a3.9 3.9 0 0 1-1.87 3.24c-.22.12-.2.06.22-.01q.6-.13 1.98-.14v-14c-2.84 0-6.05.34-8.8 1.8a10.1 10.1 0 0 0-5.54 9.1zm7.33-3.9v-1.23h-14v1.22zm-.36-3.44-1.22-3.67-13.29 4.43 1.22 3.66zm-7.87-8.45h-2.44v14h2.44zm-2.44 0c-5.28 0-8.4 3.95-9.94 6.56-1.71 2.92-3.05 6.79-4.16 11.16L106 258.8c1-3.93 1.95-6.29 2.67-7.52.35-.6.47-.6.22-.4-.33.25-1.15.74-2.35.74zm-7.32 12.45h-2.44v14h2.44zm4.56 7v-1.22h-14v1.22zm-.31.85 7.32-23.68-13.38-4.14-7.32 23.68zm.63-18.75h4.88v-14h-4.88zm-2.12-7v2.44h14v-2.44zm7 9.44h3.91v-14H109zm10.91-7v-3.66h-14v3.66zm-1.35-7.8-2.69-3.67-11.29 8.28 2.69 3.67zm-1.74 2.82 2.69-7.57-13.2-4.68-2.68 7.56zm1.04-14.86-1.22-1.22-9.9 9.9 1.22 1.22zm-6.17-3.27h-1.46v14h1.46zm-8.46 7c0 2.76-.21 4.19-.36 4.71-.08.28 0-.24.6-.96.34-.4.88-.92 1.68-1.33a6 6 0 0 1 2.63-.64v14a8.4 8.4 0 0 0 6.45-3.06c1.2-1.45 1.8-3.08 2.13-4.26.67-2.4.87-5.37.87-8.46zm4.55 1.78h-1.22v14h1.22zm5.42 9.22 27.35-82.03-13.28-4.43-27.35 82.03zm20.7-77.25h1.23v-14h-1.22zm-5.77-7v2.44h14v-2.44zm7 9.44h2.44v-14h-2.44zm8.26-10.88-2.44-3.66-11.65 7.77 2.44 3.66zm-1.34 1.24q.34-2.21.7-3.58c.26-.94.49-1.49.62-1.75.15-.3.07-.01-.42.38-.6.49-1.56.92-2.7.92v-14c-5.1 0-8 3.69-9.34 6.31-1.38 2.7-2.18 6.1-2.7 9.69zm2.69-16.4-1.47-1.23-8.96 10.76 1.46 1.22zm1.05 4.15v-1.22h-14v1.22zm-.4 1.1 37.36-106.7-13.21-4.62-37.36 106.69zm30.75-102h90.58v-14h-90.58zm-30.68 100.9v2.69h14v-2.69zm5.38 9.5 5.13 1.22 3.24-13.62-5.13-1.22zm13.75-5.6v-1.21h-14v1.22zm-3.04-6.98-3.9-2.69-7.93 11.54 3.9 2.69zm-7.87-3.92h-1.22v14h1.22zM122 172.61v2.44h14v-2.44zm8.38 9.3 6.1-1.22-2.74-13.73-6.1 1.22zm11.73-8.08v-1.22h-14v1.22zm-7-8.22H129v14h6.1zm-14.33 29.46q-.02 1.23-.13 1.61c-.07.27-.08.15.12-.13a3 3 0 0 1 1.12-.94c.47-.22.79-.22.77-.22v14c3.6 0 7.2-1.43 9.58-4.81 2.05-2.94 2.54-6.47 2.54-9.51zm-3.07 12.27 1.22 1.22 9.9-9.9-1.22-1.22zm-.83-3.73v1.22h14v-1.22zm7-5.78c-3.06 0-6.3 1.2-8.45 4.22-1.84 2.57-2.22 5.58-2.22 7.91h14c0-.46.05-.64.04-.62 0 .02-.09.37-.42.84a4 4 0 0 1-1.6 1.32c-.64.3-1.15.33-1.35.33zm-3.67 19.13h4.89v-14h-4.89zm11.89-7q.01-2.07.22-3.2a7 7 0 0 1 .29-1.12 3 3 0 0 1-2.38 1.3v-13.99a11 11 0 0 0-10.08 6.31c-1.62 3.15-2.05 7-2.05 10.7zm5.12-10v-4.9h-14v4.9zm-7-11.9h-2.44v14h2.44zm-23.1 24.34v1.22h14v-1.22zm2.04 6.17 2.44 2.44 9.9-9.9-2.44-2.44zm12.34 2.44 1.22-1.22-9.9-9.9-1.22 1.22zm3.27-6.17v-2.44h-14v2.44zm-7-9.44h-3.66v14h3.66zm27.28 16.94-1.22 1.23 9.9 9.9 1.22-1.23zm-3.27 6.18v1.22h14v-1.22zm7 8.22h3.66v-14h-3.66zm8.61-11.95-2.44-2.45-9.9 9.9 2.44 2.45zm-26.8 23.85a24 24 0 0 0 4.77 5.2 12 12 0 0 0 7.32 2.67v-14c1.04 0 1.49.45 1.21.23s-.92-.83-1.83-2.13zm5.09.87v7.57h14v-7.57zm7 14.57h2.44v-14h-2.44zm8.7-3.87 2.44-4.88-12.52-6.26-2.44 4.88zm2.5-11.02a22.8 22.8 0 0 0-10.51-10.82l-6.27 12.52c1.8.9 3.15 2.25 4.14 4.32zm-13.65-11.56h-3.9v14h3.9zm-27.01 17v1.23h14v-1.22zm11.95 6.18 2.44-2.44-9.9-9.9-2.44 2.44zm4.49-7.4v-1.21h-14v1.22zm-11.95-6.16-2.44 2.44 9.9 9.9 2.44-2.44zm-29.4 22.28v1.22h14v-1.22zm4.49 7.75 6.35 2.45 5.02-13.07-6.34-2.44zm15.5-6.3-1.22-3.66-13.28 4.42 1.22 3.67zm-7.86-8.45H95.3v14h5.13zm30.1 7v4.88h14v-4.88zm11.96 9.83 1.22-1.22-9.9-9.9-1.22 1.22zm-3.73.83h1.46v-14h-1.46zm7.96-9.6-1.46-3.66-13 5.2 1.47 3.66zm-7.96-8.06h-1.22v14h1.22zm-35.56 14.33v2.44h14v-2.44zm7 9.44h5.12v-14h-5.12zm12.12-7v-2.44h-14v2.44zm-7-9.44h-5.12v14h5.12zm6.75 1.62-1.46 1.22 8.96 10.75 1.46-1.22zm-3.98 6.6v1.22h14v-1.22zm3.03 6.99 3.9 2.68 7.94-11.54-3.9-2.68zm7.87 3.91h1.23v-14H129zm8.23-7v-1.22h-14v1.22zm-1.9-6-3.66-3.91-10.21 9.57 3.66 3.9zm-20.9 13.33v2.44h14v-2.44zm7 9.44h8.8v-14h-8.8zm15.8-7v-1.22h-14v1.22zm-4.8-7.86-3.65-1.22-4.43 13.28 3.66 1.22zm-12.87 5.42v1.22h14v-1.22zm11.48-4.16-1.46-1.22-8.96 10.75 1.46 1.23zm-5.94-2.84h-3.66v14h3.66zm-29.22 11.88v5.13h14v-5.13zm7 12.13h3.66v-14h-3.66zm10.66-7a5 5 0 0 1-.5 2.06 5 5 0 0 1-1.7 1.93c-1.07.72-1.8.56-1.13.56v-14c-1.78 0-4.34.26-6.63 1.8a9 9 0 0 0-4.04 7.65zm3.67-2.44v-2.7h-14v2.7zm-8.64-9.5-6.1 1.47 3.27 13.61 6.1-1.46zm.9 3.8-1.21-1.47-10.76 8.96 1.22 1.47zm-29.7 23.03c0-.47.09-1.23.5-2.06a5 5 0 0 1 1.7-1.93c1.07-.72 1.8-.57 1.14-.57v14c1.77 0 4.33-.26 6.63-1.79a9 9 0 0 0 4.03-7.65zm-1.61 7.39 2.44 2.44 9.9-9.9-2.44-2.44zm7.39 4.5h1.22v-14h-1.22zm4.35-.75 4.88-2.44-6.26-12.52-4.88 2.44zm8.75-8.7v-2.44h-14v2.44zm-7-9.44h-4.88v14h4.88zm2.44 6.1c-2.37 0-5.45.45-8.03 2.51a10.5 10.5 0 0 0-3.85 8.4h14c0 .07-.01.45-.23.98a4 4 0 0 1-1.18 1.56c-.95.76-1.59.55-.7.55zm-4.88 17.9h4.88v-14h-4.88zm11.88-7v-2.68h-14v2.69zm-4.91 4 3.9-1.22-4.17-13.36-3.9 1.22zm8.46-10.11-1.22-3.66-13.28 4.42 1.22 3.67zm-12.34-6.83-1.47 1.22 8.96 10.76 1.47-1.22zm3.01-.4H94.1v14h1.22zm-8.22 7v2.44h14v-2.44zm53.47 8.79c0-.47.09-1.22.5-2.06a5 5 0 0 1 1.7-1.93c1.07-.72 1.8-.57 1.14-.57v14c1.77 0 4.33-.25 6.63-1.78a9 9 0 0 0 4.03-7.66zm-1.35 7.65a11 11 0 0 1 2.27 2.6q.24.44.27.6l.03.14h14c0-5.66-3.31-10.25-7.2-13.75zm9.57 10.34H150v-14h-1.22zm6.17-2.05 2.44-2.44-9.9-9.9-2.44 2.44zm4.5-7.4v-1.22h-14v1.23zm0-1.22c0-2.9-.58-6.02-2.4-8.76a13 13 0 0 0-7.8-5.35l-3.39 13.58c.15.04.1.05-.05-.05a2 2 0 0 1-.41-.42c-.1-.14-.1-.19-.05-.04.03.15.1.48.1 1.04zm-41.35-4.88v1.22h14v-1.22zm.5 3.82 1.46 3.66 13-5.2-1.46-3.66zm7.96 8.06H129v-14h-2.44zm9.44-7v-4.88h-14v4.88zm-7-11.88h-3.9v14h3.9zm-16.8 15.31-2.44 9.77 13.58 3.4 2.45-9.77zm-2.3 13.62 2.43 7.56 13.33-4.3-2.44-7.56zm6.4-1.05-8.79 3.67 5.39 12.92 8.79-3.66zm-12.6 12.73 1.47 3.66 13-5.2-1.47-3.66zm7.97 8.06h2.44v-14h-2.44zm9.44-7q-.02 1-.37 1.7c-.2.43-.42.65-.46.69-.03.03.04-.05.32-.23q.41-.26 1.27-.66l-5.75-12.77c-2.02.91-4.09 2.1-5.74 3.76a10.6 10.6 0 0 0-3.27 7.51zm-2.12 2.12h6.1v-14H119zm-.9-7v2.44h14v-2.44zm7 9.44a4 4 0 0 1-2.13-.61c-.52-.33-.7-.63-.67-.57.04.05.2.31.42.9q.33.86.69 2.39l13.65-3.08c-.64-2.87-1.6-5.75-3.17-8.07-1.67-2.46-4.57-4.96-8.78-4.96zm5.14 7.57h3.66v-14h-3.66zm10.4-8.88-2.44-8.79-13.49 3.75 2.44 8.79zm-9.18.09c2.3 0 5.3-.58 7.7-2.97s2.96-5.4 2.96-7.7h-14c0 .15-.03-1.03 1.13-2.2s2.35-1.13 2.2-1.13zm10.32-12.81-2.44-7.57-13.33 4.3 2.45 7.56zm-2.1-5.42v-1.22h-14v1.22zm-7 5.78h2.44v-14h-2.44zm9.44-7v-3.67h-14v3.67zm-7-10.67h-2.44v14h2.44zm-7.4 2.05-2.43 2.45 9.9 9.9 2.44-2.45zm-4.48 7.4v1.22h14v-1.22zm.04 1.97 1.22 11.23 13.91-1.51-1.22-11.23zm12.49 4.96-11.23-8.78-8.63 11.02 11.23 8.79zm-8.54-3.27v-4.88h-14v4.88zm-1.18-1 2.44-3.66-11.65-7.77-2.44 3.66zm3.62-7.55v-1.22h-14v1.22zm-4.79-7.86-3.66-1.22-4.43 13.28 3.66 1.22zm-28.99 18.85V354h14v-1.46zm4.4 7.96 6.1 2.45 5.2-13-6.1-2.44zm15.7-4.05c0 .54-.1 1.35-.57 2.22a5 5 0 0 1-1.74 1.88c-.99.62-1.58.45-.78.45v-14c-1.8 0-4.35.25-6.64 1.68a9 9 0 0 0-4.27 7.77zm3.91-2.45v-1.46h-14V354zm-2.3-6.64-2.68-2.44-9.41 10.36 2.68 2.44zm-7.38-4.26h-4.89v14h4.89zm-9.84 2.05-2.44 2.44 9.9 9.9 2.44-2.44zm-29.4 13.74v3.66h14v-3.66zm9.22 10.3a22 22 0 0 0 5.7-2.71c1.55-1.11 4.22-3.57 4.22-7.6h-14c0-1.3.44-2.32.88-2.96.4-.58.75-.83.77-.84s-.1.07-.47.24q-.52.24-1.53.59zm2.92-17.3h-5.13v14h5.13z" mask="url(#a)"/><path fill="#193b5c" d="M418.22 24.9h74.46q18.56 26.37 36.14 60.8h-2.69q12.2 11.71 22.46 31v2.44l-2.44 3.9q4.88.5 4.88 3.67l-1.22 1.22q11.23 1.22 11.23 12.45l-2.44 2.44h-13.67v2.44h-8.79v2.45h-7.32l-14.9 3.9v-1.22l-10 2.44-2.45-2.44h-3.66q0 3.66-2.69 3.66h-1.22l-9.76-17.33v-1.22h2.44q0 3.66 7.32 3.66l5.13-2.44 2.44 2.44 6.1-1.22v-2.44q-6.59 0-11.22-6.35l-6.1-1.22v-2.44h-3.67v2.44h-5.13q-3.66 0-3.66-7.32-5.37 0-18.55-26.13-37.36-59.57-41.02-69.58m325.93 349.86-1.22-1.23 1.22-33.44V291.5q6.1-7.32 13.67-7.32l-2.44-3.66v-6.35l-10.01-2.44V260.5l2.44-2.44-2.44-3.66v-34.92l1.22-37.1q0-8.8 34.91-63.24l1.22 1.22 2.44-2.44h-2.44L819.83 52h2.69v212.4q0 2.45-5.13 2.45v1.22q5.13 0 5.13 2.44v88.13q0 2.44-6.35 2.44v2.45h6.35v8.78l-2.69 2.45h-40.77l-8.79-1.23-4.88 1.23h-11.23l-1.22-1.23-1.22 1.23zm51.02-8.55v-2.69l-2.44-2.44v5.13zM467.78 41.01v1.23l2.69 2.44v-1.22zM779.06 356.2h-3.9v1.22l1.22 1.22zM417 49.07h2.44l42.24 72.02q-2.44 0-2.44 3.67-7.57 0-7.57 8.54l-10.99-1.22v1.22q0 2.93-13.67 6.35l-2.44 2.44h-1.47l-4.88-6.1H417zM801.28 346.2h2.44l-4.88-3.66h-2.45v1.22zm-18.56-4.88v-2.44h-6.34v2.44zm-12.45-6.35-3.66-3.66-1.22 3.66v1.22zm35.89-21 7.57-3.66v-1.22h-3.66q-2.44 0-2.45 3.66h-2.68v1.23zm-21-10v-4.89l-2.44 2.44zM517.6 100.59l-1.23 1.22v3.9l2.45 2.44 2.44-2.44v-1.46zm227.78 186.03-1.22-1.22v-6.1l2.44-2.69h3.9l2.45 2.69v2.44q-2.44 4.4-7.57 6.1zm-229-171.14v10q-5.13.5-5.13 3.67v1.22h7.57q0 7.57 4.88 7.57v-3.9l6.35 1.46h2.44l7.32-5.13-1.22-1.22v-1.22q0-3.17 5.13-3.66v-1.22h-13.67q-11.23-3.42-11.23-7.57zm293.7 166.26 6.1-1.22v-1.22h-1.22l-6.1 1.22v1.22zM534.92 125.49v4.88l-2.44 2.44h-1.22l-2.44-2.44zm-68.36 9.28h2.69l3.66 4.88-3.66 2.44h-2.69l-3.66-3.66zm-23.44 2.44q5.62 2.44 6.1 4.88l-2.44 6.35q2.45 0 2.45-3.9h7.56l3.67-2.45h1.22l2.44 2.44-2.44 3.9v1.23h2.44q6.35-2.69 6.35-5.13h3.66q7.32 5.13 7.32 12.45v1.22q-13.67 1.22-16.11 3.67h-13.67q0 2.68-6.1 2.68l-3.67 3.66-6.35-1.22h-3.66l-8.79 4.89h-3.66l-2.44-2.45V158.2l1.22-1.22-1.22-1.22v-6.1h1.22l2.44 2.44-1.22 1.22v1.22l8.79 1.22q0-2.44 8.54-3.66l-1.22-6.35h7.57v-1.22l-2.44-6.1h1.22zM613.3 351.07q-21.24-34.18-69.58-116.45-30.27-47.36-32.47-54.44h2.68v-1.23h-2.68l-1.22 1.23q-8.55-13.43-8.55-17.58h9.77v2.68h6.35l6.1 1.22 1.22-5.12 6.35 1.22h7.32l7.57-4.89 3.66 2.45h1.22q0-6.1 11.23-8.55l3.67 1.22v-2.44h1.22q8.79 8.3 8.79 14.9-3.18 0-3.67 4.88l3.67 2.44h1.22l-1.22-1.22v-3.66h3.66l33.69 56.64zm161.86-104.24-2.44-2.45h-1.22v2.45zm-16.1-6.1v-2.45l-6.11 1.22v1.22l1.22 1.22zm-283.7-71.3h4.88l1.22-1.22h1.47q1.22 11.23 7.32 11.23l1.22-1.22 2.44 7.33v8.79h-4.88v2.44h4.88l.5 177.49h-66.17l-5.13-1.22-4.88 1.22-1.22-1.22V184.33q2.93-7.57 10.01-7.57 5.86 0 8.55-2.44H438q11.23 5.12 11.23 7.56l3.66-1.22q5.13 1.22 5.13 8.55h1.22l2.44-2.44v-2.44q-4.88-4.64-4.88-7.57h-6.35l-6.1-1.22v-2.44l3.66-3.67h16.1v2.44h5.14v-2.44l-1.47-1.22V167l7.57-3.66zm10-2.44h2.45q4.88 1.95 4.88 8.55h-1.22q-6.1-2.44-6.1-8.55m55.9 5.62v2.44h3.67v-2.44zm-68.35 2.93-1.22 6.35v3.66h1.22q3.66-1.22 3.66-7.33zm79.34 5.86v1.22l5.13 1.22h1.22v-1.22l-2.44-2.44zm3.91 3.66v3.66l2.44-2.44v-1.22zm19.78 7.32h3.66l3.66-6.1h-1.22q-3.17 0-6.1 6.1m-6.35 0v1.47h5.13v-1.47zm-140.14 1.96q4.88 5.37 4.88 9.76h1.23q4.63-4.88 7.56-4.88v-2.44q-3.66 0-3.66-2.44zm34.67 2.44q0 5.61-12.45 6.1v6.35h1.22q4.88-5.13 10-5.13 0-4.88 3.67-4.88v-2.44zm21.24 7.32v1.22l2.44 2.69h1.22l-1.22-3.9zm-18.8 2.69v2.44h7.57v-2.44zm126.71.73-1.22 3.66v1.22h1.22l2.44-2.44v-2.44zm-150.15 1.7-1.22 1.23v1.22h4.89v-1.22zM456.8 219h4.88l2.44-2.44v-1.22q-7.32 1.22-7.32 3.66m134.03 8.3h3.66v-2.44h-1.22zm-161.38 6.6v2.68l2.44 2.44h1.22l-1.22-1.22v-1.22l1.22-1.46v-1.22zm376.71-76.42v-2.44h-1.22l-2.44 2.44zm-225.34 97.17v2.44h1.22l2.44-2.44zm132.57-125-2.44 2.44h-1.22l-2.45-2.44v-4.88zm58.35-78.86V52l2.68-2.44v-1.22zM639.66 307.13l2.44 2.44h1.22v-2.44zm12.2-65.67h-1.22v2.44h3.66zm11.72-27.84v2.44l2.44 2.45h1.22v-1.22l-1.22-3.67zm3.9-21.97v1.47h5.13v-1.47zm-7.32-6.1h-1.22l3.66 6.1h3.67q-2.93-6.1-6.1-6.1m23.43-1.22v1.22l2.44 2.44v-3.66zm2.44-4.89-2.44 2.45v1.22h1.22l5.13-1.22v-1.22zm11.23-7.56v2.44h3.67v-2.44zm17.1-46.64q4.63-3.41-2.2-2.93h-13.68v1.23q5.13.48 5.13 3.66v1.22l-1.22 1.22 7.33 5.13h2.44l6.34-1.47v3.9q4.89 0 4.89-7.56h7.56v-1.22q-4.39-.25-9.52-.73l-4.64-2.45zm18.55-23.19v1.47l2.44 2.44 2.44-2.44V99.6l-1.22-1.22zm-35.65 41.02v-.98H683.6l-2.44-2.44q0-11.23 11.23-12.45l-1.22-1.22q0-3.18 4.88-3.67l-2.44-3.9v-2.44q10.25-19.29 22.46-31h-2.68q17.57-34.43 36.13-60.8h74.46q-3.66 10.01-41.01 69.58-13.19 26.12-18.56 26.12 0 7.33-3.66 7.33l-5.13 6.1v-2.44h-3.66v2.44l-6.1 1.22q-4.64.25-11.23.25v2.44l6.1 1.22 2.44-2.44 5.13 2.44q7.32 0 7.32-3.66h2.44v1.22l-9.76 17.33q-.73 4.88-16.11 26.12l-1.23-1.22h-2.68v1.22h2.68q-2.2 7.08-32.47 54.45-48.34 82.27-69.58 116.45v-126.7l33.7-56.65h3.66v3.66l-1.22 1.22h1.22l3.66-2.44q-.49-4.88-3.66-4.88 0-6.6 13.91-21.73h1.22v2.44l3.67-1.22q8.54-1.95 12.2-.97m47.86 9.27q-.74-.97-.74-2.68h-3.66l-1.7 1.7zm-11-1.22-5.85-1.46v1.22l-14.9-3.9h-7.32v-2.45h-.73l1.46 6.1h7.33l6.35-1.22 1.22 5.13 6.1-1.22h6.35zm-29.78-6.59h-4.63q.48.74.48 1.95h1.22z"/></svg>