<svg width="59" height="54" viewBox="0 0 59 54" fill="none" xmlns="http://www.w3.org/2000/svg">
<path d="M21.6102 36.4008C19.662 36.4008 18.0827 34.8235 18.0827 32.8779C18.0827 30.9322 19.662 29.3549 21.6102 29.3549C21.6968 29.3549 21.7826 29.358 21.8675 29.3642C21.4357 28.4783 21.0699 27.5537 20.7701 26.5903C20.2062 26.6561 19.687 26.7978 19.2126 27.0155C18.5328 27.3274 17.9449 27.7586 17.4488 28.3091C16.9711 28.8412 16.6037 29.4742 16.3465 30.2081C16.0892 30.9237 15.9606 31.6852 15.9606 32.4925C15.9606 33.2632 16.0709 34.0338 16.2913 34.8045C16.5118 35.5751 16.8425 36.2724 17.2835 36.8962C17.7244 37.5201 18.2664 38.0247 18.9094 38.41C19.5709 38.7953 20.3333 38.988 21.1968 38.988C22.0604 38.988 22.832 38.8228 23.5118 38.4925C24.21 38.1439 24.7979 37.6852 25.2756 37.1164C25.7533 36.5292 26.1207 35.8595 26.378 35.1072L26.3908 35.0692C25.9222 34.6877 25.4731 34.2824 25.0433 33.8532L25.0105 33.8192C24.5982 35.3078 23.232 36.4008 21.6102 36.4008Z" fill="#E98E16"/>
<path fill-rule="evenodd" clip-rule="evenodd" d="M18.0827 32.8779C18.0827 34.8235 19.662 36.4008 21.6102 36.4008C23.232 36.4008 24.5982 35.3078 25.0105 33.8192C23.9772 32.7457 23.0879 31.5643 22.3425 30.2752C22.1762 29.9762 22.0179 29.6725 21.8675 29.3642C21.7826 29.358 21.6968 29.3549 21.6102 29.3549C19.662 29.3549 18.0827 30.9322 18.0827 32.8779ZM21.6102 34.6393C22.5843 34.6393 23.374 33.8507 23.374 32.8779C23.374 31.905 22.5843 31.1164 21.6102 31.1164C20.6361 31.1164 19.8465 31.905 19.8465 32.8779C19.8465 33.8507 20.6361 34.6393 21.6102 34.6393Z" fill="#E98E16"/>
<path d="M21.6102 41.6852C16.7397 41.6852 12.7913 37.742 12.7913 32.8779C12.7913 28.4878 16.0075 24.848 20.2151 24.1801C20.0717 23.253 20 22.303 20 21.3303C20 19.7339 20.1929 18.1743 20.5787 16.6514C20.7691 15.8911 20.9996 15.1532 21.2704 14.4376L21.1968 14.4375C19.5433 14.4375 17.9724 14.6669 16.4843 15.1256C14.9961 15.5843 13.6089 16.2265 12.3228 17.0522C11.0551 17.8779 9.90682 18.8595 8.87795 19.9971C7.84908 21.1347 6.96719 22.3825 6.23228 23.7403C5.51575 25.0981 4.96457 26.5476 4.57874 28.0889C4.19291 29.6118 4 31.1714 4 32.7678C4 34.4008 4.2021 35.9696 4.6063 37.4742C5.02887 38.9788 5.60761 40.3916 6.34252 41.7127C7.0958 43.0155 7.99606 44.2081 9.04331 45.2907C10.1089 46.3549 11.294 47.2724 12.5984 48.043C13.9029 48.7953 15.2992 49.3825 16.7874 49.8045C18.294 50.2265 19.874 50.4375 21.5276 50.4375C23.2362 50.4375 24.853 50.2173 26.378 49.777C27.9029 49.3182 29.3084 48.6852 30.5945 47.8779C31.899 47.0705 33.0656 46.1072 34.0945 44.988C35.1417 43.8503 36.0236 42.6026 36.7402 41.2448C37.1314 40.5221 37.4731 39.7733 37.7654 38.9986C37.6863 38.9995 37.607 39 37.5276 39C35.874 39 34.294 38.789 32.7874 38.367C31.595 38.0288 30.4616 37.5847 29.3871 37.0345C27.9006 39.8027 24.9756 41.6852 21.6102 41.6852Z" fill="#FCE9CF"/>
<path d="M12.7913 32.8779C12.7913 37.742 16.7397 41.6852 21.6102 41.6852C24.9756 41.6852 27.9006 39.8027 29.3871 37.0345C29.1206 36.898 28.8577 36.755 28.5984 36.6055C27.82 36.1457 27.0842 35.6335 26.3908 35.0692L26.378 35.1072C26.1207 35.8595 25.7533 36.5292 25.2756 37.1164C24.7979 37.6852 24.21 38.1439 23.5118 38.4925C22.832 38.8228 22.0604 38.988 21.1968 38.988C20.3333 38.988 19.5709 38.7953 18.9094 38.41C18.2664 38.0247 17.7244 37.5201 17.2835 36.8962C16.8425 36.2724 16.5118 35.5751 16.2913 34.8045C16.0709 34.0338 15.9606 33.2632 15.9606 32.4925C15.9606 31.6852 16.0892 30.9237 16.3465 30.2081C16.6037 29.4742 16.9711 28.8412 17.4488 28.3091C17.9449 27.7586 18.5328 27.3274 19.2126 27.0155C19.687 26.7978 20.2062 26.6561 20.7701 26.5903C20.7131 26.4072 20.6585 26.2226 20.6063 26.0367C20.4429 25.4283 20.3125 24.8095 20.2151 24.1801C16.0075 24.848 12.7913 28.4878 12.7913 32.8779Z" fill="#FCE9CF"/>
<path d="M23.374 32.8779C23.374 33.8507 22.5843 34.6393 21.6102 34.6393C20.6361 34.6393 19.8465 33.8507 19.8465 32.8779C19.8465 31.905 20.6361 31.1164 21.6102 31.1164C22.5843 31.1164 23.374 31.905 23.374 32.8779Z" fill="#FCE9CF"/>
<path d="M39 32.0522C39 33.7219 38.8071 35.3366 38.4213 36.8962C38.2408 37.6171 38.0222 38.3179 37.7654 38.9986C39.3864 38.979 40.9239 38.7593 42.378 38.3395C43.9029 37.8807 45.3084 37.2477 46.5945 36.4404C47.8989 35.633 49.0656 34.6697 50.0945 33.5505C51.1417 32.4128 52.0236 31.1651 52.7402 29.8073C53.4751 28.4495 54.0354 27 54.4213 25.4587C54.8071 23.8991 55 22.2844 55 20.6147C55 17.9358 54.5682 15.5138 53.7047 13.3486C52.8596 11.1651 51.6562 9.31193 50.0945 7.78899C48.5512 6.24771 46.6772 5.06422 44.4724 4.23853C42.2861 3.41284 39.8609 3 37.1968 3C35.5433 3 33.9724 3.22936 32.4843 3.68807C30.9961 4.14679 29.6089 4.78899 28.3228 5.61468C27.0551 6.44037 25.9068 7.42202 24.878 8.55963C23.8491 9.69725 22.9672 10.945 22.2323 12.3028C21.8692 12.9908 21.5485 13.7024 21.2704 14.4376C23.9055 14.4451 26.3062 14.8579 28.4724 15.676C29.115 15.9167 29.7294 16.1877 30.3158 16.4891C31.9029 14.1615 34.5779 12.633 37.6102 12.633C42.4808 12.633 46.4291 16.5762 46.4291 21.4404C46.4291 25.8587 43.1714 29.5171 38.924 30.1506C38.9747 30.7694 39 31.4033 39 32.0522Z" fill="#DD3C71"/>
<path d="M21.6102 24.0705C26.4808 24.0705 30.4291 28.0137 30.4291 32.8779C30.4291 34.3811 30.052 35.7964 29.3871 37.0345C30.4616 37.5847 31.595 38.0288 32.7874 38.367C34.294 38.789 35.874 39 37.5276 39C37.607 39 37.6863 38.9995 37.7654 38.9986C38.0222 38.3179 38.2408 37.6171 38.4213 36.8962C38.8071 35.3366 39 33.7219 39 32.0522C39 31.4033 38.9747 30.7694 38.924 30.1506C38.4954 30.2146 38.0567 30.2477 37.6102 30.2477C32.7397 30.2477 28.7913 26.3045 28.7913 21.4404C28.7913 19.6046 29.3537 17.9 30.3158 16.4891C29.7294 16.1877 29.115 15.9167 28.4724 15.676C26.3062 14.8579 23.9055 14.4451 21.2704 14.4376C20.9996 15.1532 20.7691 15.8911 20.5787 16.6514C20.1929 18.1743 20 19.7339 20 21.3303C20 22.303 20.0717 23.253 20.2151 24.1801C20.6695 24.108 21.1355 24.0705 21.6102 24.0705Z" fill="#DD3C71"/>
<path d="M30.4291 32.8779C30.4291 28.0137 26.4808 24.0705 21.6102 24.0705C21.1355 24.0705 20.6695 24.108 20.2151 24.1801C20.3125 24.8095 20.4429 25.4283 20.6063 26.0367C20.6585 26.2226 20.7131 26.4072 20.7701 26.5903C21.0142 26.5618 21.2667 26.5476 21.5276 26.5476C22.3727 26.5476 23.1168 26.7311 23.7598 27.0981C24.4213 27.4467 24.9724 27.9146 25.4134 28.5017C25.8543 29.0705 26.185 29.7311 26.4055 30.4834C26.6444 31.2173 26.7638 31.9788 26.7638 32.7678C26.7638 33.5615 26.6395 34.3286 26.3908 35.0692C27.0842 35.6335 27.82 36.1457 28.5984 36.6055C28.8577 36.755 29.1206 36.898 29.3871 37.0345C30.052 35.7964 30.4291 34.3811 30.4291 32.8779Z" fill="#DD3C71"/>
<path d="M26.7638 32.7678C26.7638 31.9788 26.6444 31.2173 26.4055 30.4834C26.185 29.7311 25.8543 29.0705 25.4134 28.5017C24.9724 27.9146 24.4213 27.4467 23.7598 27.0981C23.1168 26.7311 22.3727 26.5476 21.5276 26.5476C21.2667 26.5476 21.0142 26.5618 20.7701 26.5903C21.0699 27.5537 21.4357 28.4783 21.8675 29.3642C23.6956 29.4958 25.1378 31.0186 25.1378 32.8779C25.1378 33.2039 25.0935 33.5195 25.0105 33.8192L25.0433 33.8532C25.4731 34.2824 25.9222 34.6877 26.3908 35.0692C26.6395 34.3286 26.7638 33.5615 26.7638 32.7678Z" fill="#DD3C71"/>
<path d="M21.8675 29.3642C22.0179 29.6725 22.1762 29.9762 22.3425 30.2752C23.0879 31.5643 23.9772 32.7457 25.0105 33.8192C25.0935 33.5195 25.1378 33.2039 25.1378 32.8779C25.1378 31.0186 23.6956 29.4958 21.8675 29.3642Z" fill="#DD3C71"/>
<path d="M28.7913 21.4404C28.7913 26.3045 32.7397 30.2477 37.6102 30.2477C38.0567 30.2477 38.4954 30.2146 38.924 30.1506C38.8462 29.2005 38.7087 28.286 38.5114 27.4069C38.0998 27.5026 37.6617 27.5505 37.1968 27.5505C36.3333 27.5505 35.5709 27.3578 34.9094 26.9725C34.2664 26.5872 33.7244 26.0826 33.2835 25.4587C32.8425 24.8349 32.5118 24.1376 32.2913 23.367C32.0709 22.5963 31.9606 21.8257 31.9606 21.055C31.9606 20.2477 32.0892 19.4862 32.3465 18.7706C32.443 18.4952 32.5551 18.2339 32.6827 17.9869C31.9524 17.4241 31.1635 16.9249 30.3158 16.4891C29.3537 17.9 28.7913 19.6046 28.7913 21.4404Z" fill="#DD3C71"/>
<path d="M46.4291 21.4404C46.4291 16.5762 42.4808 12.633 37.6102 12.633C34.5779 12.633 31.9029 14.1615 30.3158 16.4891C31.1635 16.9249 31.9524 17.4241 32.6827 17.9869C32.895 17.5757 33.1504 17.2039 33.4488 16.8716C33.9449 16.3211 34.5328 15.8899 35.2126 15.578C35.8924 15.2661 36.664 15.1101 37.5276 15.1101C38.3727 15.1101 39.1168 15.2936 39.7598 15.6606C40.4213 16.0092 40.9724 16.4771 41.4134 17.0642C41.8543 17.633 42.185 18.2936 42.4055 19.0459C42.6444 19.7798 42.7638 20.5413 42.7638 21.3303C42.7638 22.1376 42.6352 22.9174 42.378 23.6697C42.1207 24.422 41.7533 25.0917 41.2756 25.6789C40.7979 26.2477 40.21 26.7064 39.5118 27.055C39.1979 27.2075 38.8645 27.3248 38.5114 27.4069C38.7087 28.286 38.8462 29.2005 38.924 30.1506C43.1714 29.5171 46.4291 25.8587 46.4291 21.4404Z" fill="#DD3C71"/>
<path d="M37.6102 23.2018C38.5843 23.2018 39.374 22.4132 39.374 21.4404C39.374 20.4675 38.5843 19.6789 37.6102 19.6789C36.6863 19.6789 35.9282 20.3885 35.8526 21.2917C36.2463 21.8511 36.6052 22.4424 36.9294 23.0658C37.1389 23.1534 37.3689 23.2018 37.6102 23.2018Z" fill="#DD3C71"/>
<path d="M35.8526 21.2917C35.8485 21.3407 35.8465 21.3903 35.8465 21.4404C35.8465 22.1722 36.2933 22.7998 36.9294 23.0658C36.6052 22.4424 36.2463 21.8511 35.8526 21.2917Z" fill="#DD3C71"/>
<path d="M37.6102 17.9174C39.5585 17.9174 41.1378 19.4947 41.1378 21.4404C41.1378 23.3316 39.6455 24.8748 37.7728 24.9596C38.0747 25.7422 38.3209 26.558 38.5114 27.4069C38.8645 27.3248 39.1979 27.2075 39.5118 27.055C40.21 26.7064 40.7979 26.2477 41.2756 25.6789C41.7533 25.0917 42.1207 24.422 42.378 23.6697C42.6352 22.9174 42.7638 22.1376 42.7638 21.3303C42.7638 20.5413 42.6444 19.7798 42.4055 19.0459C42.185 18.2936 41.8543 17.633 41.4134 17.0642C40.9724 16.4771 40.4213 16.0092 39.7598 15.6606C39.1168 15.2936 38.3727 15.1101 37.5276 15.1101C36.664 15.1101 35.8924 15.2661 35.2126 15.578C34.5328 15.8899 33.9449 16.3211 33.4488 16.8716C33.1504 17.2039 32.895 17.5757 32.6827 17.9869C33.1806 18.3705 33.6512 18.7838 34.0945 19.2265C34.2494 19.3775 34.4007 19.5318 34.5486 19.6894C35.157 18.6306 36.3002 17.9174 37.6102 17.9174Z" fill="#32293D"/>
<path d="M41.1378 21.4404C41.1378 19.4947 39.5585 17.9174 37.6102 17.9174C36.3002 17.9174 35.157 18.6306 34.5486 19.6894C35.0189 20.1906 35.4536 20.7247 35.8526 21.2917C35.9282 20.3885 36.6863 19.6789 37.6102 19.6789C38.5843 19.6789 39.374 20.4675 39.374 21.4404C39.374 22.4132 38.5843 23.2018 37.6102 23.2018C37.3689 23.2018 37.1389 23.1534 36.9294 23.0658C37.2147 23.6145 37.4732 24.1879 37.7047 24.7861C37.7277 24.8438 37.7504 24.9016 37.7728 24.9596C39.6455 24.8748 41.1378 23.3316 41.1378 21.4404Z" fill="#32293D"/>
<path d="M34.0827 21.4404C34.0827 23.386 35.662 24.9633 37.6102 24.9633C37.6647 24.9633 37.7189 24.9621 37.7728 24.9596C37.7504 24.9016 37.7277 24.8438 37.7047 24.7861C37.4732 24.1879 37.2147 23.6145 36.9294 23.0658C36.2933 22.7998 35.8465 22.1722 35.8465 21.4404C35.8465 21.3903 35.8485 21.3407 35.8526 21.2917C35.4536 20.7247 35.0189 20.1906 34.5486 19.6894C34.2522 20.2052 34.0827 20.803 34.0827 21.4404Z" fill="#32293D"/>
<path d="M37.6102 24.9633C35.662 24.9633 34.0827 23.386 34.0827 21.4404C34.0827 20.803 34.2522 20.2052 34.5486 19.6894C34.4007 19.5318 34.2494 19.3775 34.0945 19.2265C33.6512 18.7838 33.1806 18.3705 32.6827 17.9869C32.5551 18.2339 32.443 18.4952 32.3465 18.7706C32.0892 19.4862 31.9606 20.2477 31.9606 21.055C31.9606 21.8257 32.0709 22.5963 32.2913 23.367C32.5118 24.1376 32.8425 24.8349 33.2835 25.4587C33.7244 26.0826 34.2664 26.5872 34.9094 26.9725C35.5709 27.3578 36.3333 27.5505 37.1968 27.5505C37.6617 27.5505 38.0998 27.5026 38.5114 27.4069C38.3209 26.558 38.0747 25.7422 37.7728 24.9596C37.7189 24.9621 37.6647 24.9633 37.6102 24.9633Z" fill="#32293D"/>
</svg>
