<svg width="51" height="48" viewBox="0 0 51 48" fill="none" xmlns="http://www.w3.org/2000/svg">
<path d="M35 29.0522C35 30.7219 34.8071 32.3366 34.4213 33.8962C34.2408 34.6171 34.0222 35.3179 33.7654 35.9986C35.3864 35.979 36.9239 35.7593 38.378 35.3395C39.9029 34.8807 41.3084 34.2477 42.5945 33.4404C43.8989 32.633 45.0656 31.6697 46.0945 30.5505C47.1417 29.4128 48.0236 28.1651 48.7402 26.8073C49.4751 25.4495 50.0354 24 50.4213 22.4587C50.8071 20.8991 51 19.2844 51 17.6147C51 14.9358 50.5682 12.5138 49.7047 10.3486C48.8596 8.16514 47.6562 6.31193 46.0945 4.78899C44.5512 3.24771 42.6772 2.06422 40.4724 1.23853C38.2861 0.412844 35.8609 0 33.1968 0C31.5433 0 29.9724 0.229358 28.4843 0.688073C26.9961 1.14679 25.6089 1.78899 24.3228 2.61468C23.0551 3.44037 21.9068 4.42202 20.878 5.55963C19.8491 6.69725 18.9672 7.94495 18.2323 9.30275C17.8692 9.99081 17.5485 10.7024 17.2704 11.4376C19.9055 11.4451 22.3062 11.8579 24.4724 12.676C25.115 12.9167 25.7294 13.1877 26.3158 13.4891C27.9029 11.1615 30.5779 9.63303 33.6102 9.63303C38.4808 9.63303 42.4291 13.5762 42.4291 18.4404C42.4291 22.8587 39.1714 26.5171 34.924 27.1506C34.9747 27.7694 35 28.4033 35 29.0522Z" fill="#DD3C71"/>
<path d="M24.7913 18.4404C24.7913 23.3045 28.7397 27.2477 33.6102 27.2477C34.0567 27.2477 34.4954 27.2146 34.924 27.1506C34.8462 26.2005 34.7087 25.286 34.5114 24.4069C34.0998 24.5026 33.6617 24.5505 33.1968 24.5505C32.3333 24.5505 31.5709 24.3578 30.9094 23.9725C30.2664 23.5872 29.7244 23.0826 29.2835 22.4587C28.8425 21.8349 28.5118 21.1376 28.2913 20.367C28.0709 19.5963 27.9606 18.8257 27.9606 18.055C27.9606 17.2477 28.0892 16.4862 28.3465 15.7706C28.443 15.4952 28.5551 15.2339 28.6827 14.9869C27.9524 14.4241 27.1635 13.9249 26.3158 13.4891C25.3537 14.9 24.7913 16.6046 24.7913 18.4404Z" fill="#DD3C71"/>
<path d="M42.4291 18.4404C42.4291 13.5762 38.4808 9.63303 33.6102 9.63303C30.5779 9.63303 27.9029 11.1615 26.3158 13.4891C27.1635 13.9249 27.9524 14.4241 28.6827 14.9869C28.895 14.5757 29.1504 14.2039 29.4488 13.8716C29.9449 13.3211 30.5328 12.8899 31.2126 12.578C31.8924 12.2661 32.664 12.1101 33.5276 12.1101C34.3727 12.1101 35.1168 12.2936 35.7598 12.6606C36.4213 13.0092 36.9724 13.4771 37.4134 14.0642C37.8543 14.633 38.185 15.2936 38.4055 16.0459C38.6444 16.7798 38.7638 17.5413 38.7638 18.3303C38.7638 19.1376 38.6352 19.9174 38.378 20.6697C38.1207 21.422 37.7533 22.0917 37.2756 22.6789C36.7979 23.2477 36.21 23.7064 35.5118 24.055C35.1979 24.2075 34.8645 24.3248 34.5114 24.4069C34.7087 25.286 34.8462 26.2005 34.924 27.1506C39.1714 26.5171 42.4291 22.8587 42.4291 18.4404Z" fill="#DD3C71"/>
<path d="M33.6102 20.2018C34.5843 20.2018 35.374 19.4132 35.374 18.4404C35.374 17.4675 34.5843 16.6789 33.6102 16.6789C32.6863 16.6789 31.9282 17.3885 31.8526 18.2917C32.2463 18.8511 32.6052 19.4424 32.9294 20.0658C33.1389 20.1534 33.3689 20.2018 33.6102 20.2018Z" fill="#DD3C71"/>
<path d="M32.9294 20.0658C32.6052 19.4424 32.2463 18.8511 31.8526 18.2917C31.8485 18.3407 31.8465 18.3903 31.8465 18.4404C31.8465 19.1722 32.2933 19.7998 32.9294 20.0658Z" fill="#DD3C71"/>
<path d="M17.6102 21.0705C22.4808 21.0705 26.4291 25.0137 26.4291 29.8779C26.4291 31.3811 26.052 32.7964 25.3871 34.0345C26.4616 34.5847 27.595 35.0288 28.7874 35.367C30.294 35.789 31.874 36 33.5276 36C33.607 36 33.6863 35.9995 33.7654 35.9986C34.0222 35.3179 34.2408 34.6171 34.4213 33.8962C34.8071 32.3366 35 30.7219 35 29.0522C35 28.4033 34.9747 27.7694 34.924 27.1506C34.4954 27.2146 34.0567 27.2477 33.6102 27.2477C28.7397 27.2477 24.7913 23.3045 24.7913 18.4404C24.7913 16.6046 25.3537 14.9 26.3158 13.4891C25.7294 13.1877 25.115 12.9167 24.4724 12.676C22.3062 11.8579 19.9055 11.4451 17.2704 11.4376C16.9996 12.1532 16.7691 12.8911 16.5787 13.6514C16.1929 15.1743 16 16.7339 16 18.3303C16 19.303 16.0717 20.253 16.2151 21.1801C16.6695 21.108 17.1355 21.0705 17.6102 21.0705Z" fill="#DD3C71"/>
<path d="M17.8675 26.3642C18.0179 26.6726 18.1762 26.9762 18.3425 27.2752C19.0879 28.5643 19.9772 29.7457 21.0105 30.8192C21.0935 30.5195 21.1378 30.2039 21.1378 29.8779C21.1378 28.0186 19.6956 26.4958 17.8675 26.3642Z" fill="#DD3C71"/>
<path d="M22.7638 29.7678C22.7638 28.9788 22.6444 28.2173 22.4055 27.4834C22.185 26.7311 21.8543 26.0705 21.4134 25.5017C20.9724 24.9146 20.4213 24.4467 19.7598 24.0981C19.1168 23.7311 18.3727 23.5476 17.5276 23.5476C17.2667 23.5476 17.0142 23.5618 16.7701 23.5903C17.0699 24.5537 17.4357 25.4783 17.8675 26.3642C19.6956 26.4958 21.1378 28.0186 21.1378 29.8779C21.1378 30.2039 21.0935 30.5195 21.0105 30.8192L21.0433 30.8532C21.4731 31.2824 21.9222 31.6877 22.3908 32.0692C22.6395 31.3286 22.7638 30.5615 22.7638 29.7678Z" fill="#DD3C71"/>
<path d="M26.4291 29.8779C26.4291 25.0137 22.4808 21.0705 17.6102 21.0705C17.1355 21.0705 16.6695 21.108 16.2151 21.1801C16.3125 21.8095 16.4429 22.4283 16.6063 23.0367C16.6585 23.2226 16.7131 23.4072 16.7701 23.5903C17.0142 23.5618 17.2667 23.5476 17.5276 23.5476C18.3727 23.5476 19.1168 23.7311 19.7598 24.0981C20.4213 24.4467 20.9724 24.9146 21.4134 25.5017C21.8543 26.0705 22.185 26.7311 22.4055 27.4834C22.6444 28.2173 22.7638 28.9788 22.7638 29.7678C22.7638 30.5615 22.6395 31.3286 22.3908 32.0692C23.0842 32.6335 23.82 33.1457 24.5984 33.6055C24.8577 33.755 25.1206 33.898 25.3871 34.0345C26.052 32.7964 26.4291 31.3811 26.4291 29.8779Z" fill="#DD3C71"/>
<path d="M17.6102 38.6852C12.7397 38.6852 8.79134 34.742 8.79134 29.8779C8.79134 25.4878 12.0075 21.848 16.2151 21.1801C16.0717 20.253 16 19.303 16 18.3303C16 16.7339 16.1929 15.1743 16.5787 13.6514C16.7691 12.8911 16.9996 12.1532 17.2704 11.4376L17.1968 11.4375C15.5433 11.4375 13.9724 11.6669 12.4843 12.1256C10.9961 12.5843 9.60892 13.2265 8.32283 14.0522C7.05512 14.8779 5.90682 15.8595 4.87795 16.9971C3.84908 18.1347 2.96719 19.3825 2.23228 20.7403C1.51575 22.0981 0.964567 23.5476 0.57874 25.0889C0.192913 26.6118 0 28.1714 0 29.7678C0 31.4008 0.2021 32.9696 0.606299 34.4742C1.02887 35.9788 1.60761 37.3916 2.34252 38.7127C3.0958 40.0155 3.99606 41.2081 5.04331 42.2907C6.10892 43.3549 7.29396 44.2724 8.59842 45.043C9.90289 45.7953 11.2992 46.3825 12.7874 46.8045C14.294 47.2265 15.874 47.4375 17.5276 47.4375C19.2362 47.4375 20.853 47.2173 22.378 46.777C23.9029 46.3182 25.3084 45.6852 26.5945 44.8779C27.899 44.0705 29.0656 43.1072 30.0945 41.988C31.1417 40.8503 32.0236 39.6026 32.7402 38.2448C33.1314 37.5221 33.4731 36.7733 33.7654 35.9986C33.6863 35.9995 33.607 36 33.5276 36C31.874 36 30.294 35.789 28.7874 35.367C27.595 35.0288 26.4616 34.5847 25.3871 34.0345C23.9006 36.8027 20.9756 38.6852 17.6102 38.6852Z" fill="#32293D"/>
<path d="M8.79134 29.8779C8.79134 34.742 12.7397 38.6852 17.6102 38.6852C20.9756 38.6852 23.9006 36.8027 25.3871 34.0345C25.1206 33.898 24.8577 33.755 24.5984 33.6055C23.82 33.1457 23.0842 32.6335 22.3908 32.0692L22.378 32.1072C22.1207 32.8595 21.7533 33.5292 21.2756 34.1164C20.7979 34.6852 20.21 35.1439 19.5118 35.4925C18.832 35.8228 18.0604 35.988 17.1968 35.988C16.3333 35.988 15.5709 35.7953 14.9094 35.41C14.2664 35.0247 13.7244 34.5201 13.2835 33.8962C12.8425 33.2724 12.5118 32.5751 12.2913 31.8045C12.0709 31.0338 11.9606 30.2632 11.9606 29.4925C11.9606 28.6852 12.0892 27.9237 12.3465 27.2081C12.6037 26.4742 12.9711 25.8412 13.4488 25.3091C13.9449 24.7586 14.5328 24.3274 15.2126 24.0155C15.687 23.7978 16.2062 23.6561 16.7701 23.5903C16.7131 23.4072 16.6585 23.2226 16.6063 23.0367C16.4429 22.4283 16.3125 21.8095 16.2151 21.1801C12.0075 21.848 8.79134 25.4878 8.79134 29.8779Z" fill="#32293D"/>
<path d="M19.374 29.8779C19.374 30.8507 18.5843 31.6393 17.6102 31.6393C16.6361 31.6393 15.8465 30.8507 15.8465 29.8779C15.8465 28.905 16.6361 28.1164 17.6102 28.1164C18.5843 28.1164 19.374 28.905 19.374 29.8779Z" fill="#32293D"/>
<path d="M17.6102 33.4008C15.662 33.4008 14.0827 31.8235 14.0827 29.8779C14.0827 27.9322 15.662 26.3549 17.6102 26.3549C17.6968 26.3549 17.7826 26.358 17.8675 26.3642C17.4357 25.4783 17.0699 24.5537 16.7701 23.5903C16.2062 23.6561 15.687 23.7978 15.2126 24.0155C14.5328 24.3274 13.9449 24.7586 13.4488 25.3091C12.9711 25.8412 12.6037 26.4742 12.3465 27.2081C12.0892 27.9237 11.9606 28.6852 11.9606 29.4925C11.9606 30.2632 12.0709 31.0338 12.2913 31.8045C12.5118 32.5751 12.8425 33.2724 13.2835 33.8962C13.7244 34.5201 14.2664 35.0247 14.9094 35.41C15.5709 35.7953 16.3333 35.988 17.1968 35.988C18.0604 35.988 18.832 35.8228 19.5118 35.4925C20.21 35.1439 20.7979 34.6852 21.2756 34.1164C21.7533 33.5292 22.1207 32.8595 22.378 32.1072L22.3908 32.0692C21.9222 31.6877 21.4731 31.2824 21.0433 30.8532L21.0105 30.8192C20.5982 32.3078 19.232 33.4008 17.6102 33.4008Z" fill="#E98E16"/>
<path fill-rule="evenodd" clip-rule="evenodd" d="M14.0827 29.8779C14.0827 31.8235 15.662 33.4008 17.6102 33.4008C19.232 33.4008 20.5982 32.3078 21.0105 30.8192C19.9772 29.7457 19.0879 28.5643 18.3425 27.2752C18.1762 26.9762 18.0179 26.6726 17.8675 26.3642C17.7826 26.358 17.6968 26.3549 17.6102 26.3549C15.662 26.3549 14.0827 27.9322 14.0827 29.8779ZM17.6102 31.6393C18.5843 31.6393 19.374 30.8507 19.374 29.8779C19.374 28.905 18.5843 28.1164 17.6102 28.1164C16.6361 28.1164 15.8465 28.905 15.8465 29.8779C15.8465 30.8507 16.6361 31.6393 17.6102 31.6393Z" fill="#E98E16"/>
<path d="M33.6102 14.9174C35.5585 14.9174 37.1378 16.4947 37.1378 18.4404C37.1378 20.3316 35.6455 21.8748 33.7728 21.9596C34.0747 22.7423 34.3209 23.558 34.5114 24.4069C34.8645 24.3248 35.1979 24.2075 35.5118 24.055C36.21 23.7064 36.7979 23.2477 37.2756 22.6789C37.7533 22.0917 38.1207 21.422 38.378 20.6697C38.6352 19.9174 38.7638 19.1376 38.7638 18.3303C38.7638 17.5413 38.6444 16.7798 38.4055 16.0459C38.185 15.2936 37.8543 14.633 37.4134 14.0642C36.9724 13.4771 36.4213 13.0092 35.7598 12.6606C35.1168 12.2936 34.3727 12.1101 33.5276 12.1101C32.664 12.1101 31.8924 12.2661 31.2126 12.578C30.5328 12.8899 29.9449 13.3211 29.4488 13.8716C29.1504 14.2039 28.895 14.5757 28.6827 14.9869C29.1806 15.3705 29.6512 15.7838 30.0945 16.2265C30.2494 16.3775 30.4007 16.5318 30.5486 16.6894C31.157 15.6306 32.3002 14.9174 33.6102 14.9174Z" fill="#F9F3EC"/>
<path d="M33.6102 21.9633C31.662 21.9633 30.0827 20.386 30.0827 18.4404C30.0827 17.803 30.2522 17.2052 30.5486 16.6894C30.4007 16.5318 30.2494 16.3775 30.0945 16.2265C29.6512 15.7838 29.1806 15.3705 28.6827 14.9869C28.5551 15.2339 28.443 15.4952 28.3465 15.7706C28.0892 16.4862 27.9606 17.2477 27.9606 18.055C27.9606 18.8257 28.0709 19.5963 28.2913 20.367C28.5118 21.1376 28.8425 21.8349 29.2835 22.4587C29.7244 23.0826 30.2664 23.5872 30.9094 23.9725C31.5709 24.3578 32.3333 24.5505 33.1968 24.5505C33.6617 24.5505 34.0998 24.5026 34.5114 24.4069C34.3209 23.558 34.0747 22.7423 33.7728 21.9596C33.7189 21.9621 33.6647 21.9633 33.6102 21.9633Z" fill="#F9F3EC"/>
<path d="M30.0827 18.4404C30.0827 20.386 31.662 21.9633 33.6102 21.9633C33.6647 21.9633 33.7189 21.9621 33.7728 21.9596C33.7504 21.9016 33.7277 21.8438 33.7047 21.7861C33.4732 21.1879 33.2147 20.6145 32.9294 20.0658C32.2933 19.7998 31.8465 19.1722 31.8465 18.4404C31.8465 18.3903 31.8485 18.3407 31.8526 18.2917C31.4536 17.7247 31.0189 17.1906 30.5486 16.6894C30.2522 17.2052 30.0827 17.803 30.0827 18.4404Z" fill="#F9F3EC"/>
<path d="M37.1378 18.4404C37.1378 16.4947 35.5585 14.9174 33.6102 14.9174C32.3002 14.9174 31.157 15.6306 30.5486 16.6894C31.0189 17.1906 31.4536 17.7247 31.8526 18.2917C31.9282 17.3885 32.6863 16.6789 33.6102 16.6789C34.5843 16.6789 35.374 17.4675 35.374 18.4404C35.374 19.4132 34.5843 20.2018 33.6102 20.2018C33.3689 20.2018 33.1389 20.1534 32.9294 20.0658C33.2147 20.6145 33.4732 21.1879 33.7047 21.7861C33.7277 21.8438 33.7504 21.9016 33.7728 21.9596C35.6455 21.8748 37.1378 20.3316 37.1378 18.4404Z" fill="#F9F3EC"/>
</svg>
