<svg width="201" height="24" viewBox="0 0 201 24" fill="none" xmlns="http://www.w3.org/2000/svg">
<path d="M151.65 11.5C151.65 12.6046 150.755 13.5 149.65 13.5C148.545 13.5 147.65 12.6046 147.65 11.5C147.65 10.3954 148.545 9.5 149.65 9.5C150.755 9.5 151.65 10.3954 151.65 11.5Z" fill="#DD3C71"/>
<path fill-rule="evenodd" clip-rule="evenodd" d="M154.65 11.5C154.65 14.2614 152.411 16.5 149.65 16.5C146.889 16.5 144.65 14.2614 144.65 11.5C144.65 8.73858 146.889 6.5 149.65 6.5C152.411 6.5 154.65 8.73858 154.65 11.5ZM149.65 13.5C150.755 13.5 151.65 12.6046 151.65 11.5C151.65 10.3954 150.755 9.5 149.65 9.5C148.545 9.5 147.65 10.3954 147.65 11.5C147.65 12.6046 148.545 13.5 149.65 13.5Z" fill="#DD3C71"/>
<path d="M150.65 11.5C150.65 12.0523 150.202 12.5 149.65 12.5C149.098 12.5 148.65 12.0523 148.65 11.5C148.65 10.9477 149.098 10.5 149.65 10.5C150.202 10.5 150.65 10.9477 150.65 11.5Z" fill="#FCE9CF"/>
<path d="M29.65 11.5C29.65 12.6046 28.7546 13.5 27.65 13.5C26.5454 13.5 25.65 12.6046 25.65 11.5C25.65 10.3954 26.5454 9.5 27.65 9.5C28.7546 9.5 29.65 10.3954 29.65 11.5Z" fill="#E98E16"/>
<path fill-rule="evenodd" clip-rule="evenodd" d="M32.65 11.5C32.65 14.2614 30.4114 16.5 27.65 16.5C24.8886 16.5 22.65 14.2614 22.65 11.5C22.65 8.73858 24.8886 6.5 27.65 6.5C30.4114 6.5 32.65 8.73858 32.65 11.5ZM27.65 13.5C28.7546 13.5 29.65 12.6046 29.65 11.5C29.65 10.3954 28.7546 9.5 27.65 9.5C26.5454 9.5 25.65 10.3954 25.65 11.5C25.65 12.6046 26.5454 13.5 27.65 13.5Z" fill="#E98E16"/>
<path d="M28.65 11.5C28.65 12.0523 28.2023 12.5 27.65 12.5C27.0977 12.5 26.65 12.0523 26.65 11.5C26.65 10.9477 27.0977 10.5 27.65 10.5C28.2023 10.5 28.65 10.9477 28.65 11.5Z" fill="#FCE9CF"/>
<path d="M16.0625 0.84375L15.1875 7.4375C14.8854 7.35417 14.5833 7.29688 14.2812 7.26562C13.9792 7.23438 13.6771 7.21875 13.375 7.21875C12.6042 7.21875 11.8698 7.32292 11.1719 7.53125C10.474 7.72917 9.85417 8.03646 9.3125 8.45312C8.78125 8.86979 8.35417 9.39062 8.03125 10.0156C7.71875 10.6406 7.5625 11.375 7.5625 12.2188C7.5625 12.7604 7.64583 13.2292 7.8125 13.625C7.98958 14.0208 8.23438 14.349 8.54688 14.6094C8.85938 14.8698 9.22917 15.0625 9.65625 15.1875C10.0833 15.3125 10.5521 15.375 11.0625 15.375C11.4479 15.375 11.849 15.3333 12.2656 15.25C12.6823 15.1667 13.0938 15.0573 13.5 14.9219C13.9062 14.7865 14.3021 14.6302 14.6875 14.4531C15.0729 14.276 15.4271 14.0938 15.75 13.9062L15.125 21.25C14.7188 21.4583 14.276 21.6458 13.7969 21.8125C13.3281 21.9688 12.8438 22.1094 12.3438 22.2344C11.8438 22.349 11.3438 22.4375 10.8438 22.5C10.3438 22.5625 9.86458 22.5938 9.40625 22.5938C8.08333 22.5938 6.84896 22.349 5.70312 21.8594C4.55729 21.3698 3.5625 20.6979 2.71875 19.8438C1.875 18.9896 1.20833 17.9844 0.71875 16.8281C0.239583 15.6615 0 14.4062 0 13.0625C0 11.2812 0.255208 9.60417 0.765625 8.03125C1.27604 6.44792 2.02604 5.0625 3.01562 3.875C4.00521 2.6875 5.22917 1.75 6.6875 1.0625C8.15625 0.375 9.84375 0.03125 11.75 0.03125C12.4688 0.03125 13.2031 0.0885417 13.9531 0.203125C14.7135 0.317708 15.4167 0.53125 16.0625 0.84375Z" fill="#FCE9CF"/>
<path d="M37.7094 10.8438C37.7094 11.7917 37.6 12.7083 37.3812 13.5938C37.1625 14.4688 36.8448 15.2917 36.4281 16.0625C36.0219 16.8333 35.5219 17.5417 34.9281 18.1875C34.3448 18.8229 33.6833 19.3698 32.9437 19.8281C32.2146 20.2865 31.4177 20.6458 30.5531 20.9062C29.6885 21.1562 28.7719 21.2812 27.8031 21.2812C26.8656 21.2812 25.9698 21.1615 25.1156 20.9219C24.2719 20.6823 23.4802 20.349 22.7406 19.9219C22.001 19.4844 21.3292 18.9635 20.725 18.3594C20.1313 17.7448 19.6208 17.0677 19.1938 16.3281C18.7771 15.5781 18.449 14.776 18.2094 13.9219C17.9802 13.0677 17.8656 12.1771 17.8656 11.25C17.8656 10.3438 17.975 9.45833 18.1938 8.59375C18.4125 7.71875 18.725 6.89583 19.1313 6.125C19.5479 5.35417 20.0479 4.64583 20.6313 4C21.2146 3.35417 21.8656 2.79688 22.5844 2.32812C23.3135 1.85938 24.1 1.49479 24.9438 1.23438C25.7875 0.973958 26.6781 0.84375 27.6156 0.84375C29.126 0.84375 30.501 1.07812 31.7406 1.54688C32.9906 2.01562 34.0531 2.6875 34.9281 3.5625C35.8135 4.42708 36.4958 5.47917 36.975 6.71875C37.4646 7.94792 37.7094 9.32292 37.7094 10.8438ZM30.7719 11.25C30.7719 10.8021 30.7042 10.3698 30.5688 9.95312C30.4438 9.52604 30.2563 9.15104 30.0063 8.82812C29.7563 8.49479 29.4438 8.22917 29.0688 8.03125C28.7042 7.82292 28.2823 7.71875 27.8031 7.71875C27.3135 7.71875 26.876 7.80729 26.4906 7.98438C26.1052 8.16146 25.7719 8.40625 25.4906 8.71875C25.2198 9.02083 25.0115 9.38021 24.8656 9.79688C24.7198 10.2031 24.6469 10.6354 24.6469 11.0938C24.6469 11.5312 24.7094 11.9688 24.8344 12.4062C24.9594 12.8438 25.1469 13.2396 25.3969 13.5938C25.6469 13.9479 25.9542 14.2344 26.3188 14.4531C26.6938 14.6719 27.126 14.7812 27.6156 14.7812C28.1052 14.7812 28.5427 14.6875 28.9281 14.5C29.324 14.3021 29.6573 14.0417 29.9281 13.7188C30.199 13.3854 30.4073 13.0052 30.5531 12.5781C30.699 12.151 30.7719 11.7083 30.7719 11.25Z" fill="#FCE9CF"/>
<path d="M54.1063 14.5312L53.45 21.4688L40.2938 22.5L40.7938 0.1875H48.9188L47.7625 14.5312H54.1063Z" fill="#FCE9CF"/>
<path d="M70.1438 14.5312L69.4875 21.4688L56.3312 22.5L56.8312 0.1875H64.9563L63.8 14.5312H70.1438Z" fill="#FCE9CF"/>
<path d="M89.9156 10.1875C89.9156 11.0938 89.8531 12 89.7281 12.9062C87.9469 13.0208 86.176 13.2083 84.4156 13.4688C82.6552 13.7188 80.8948 13.9688 79.1344 14.2188C79.4052 14.9688 79.8271 15.5677 80.4 16.0156C80.9833 16.4635 81.676 16.6875 82.4781 16.6875C82.8948 16.6875 83.3479 16.6094 83.8375 16.4531C84.3375 16.2969 84.8323 16.1042 85.3219 15.875C85.8115 15.6354 86.2802 15.3802 86.7281 15.1094C87.176 14.8385 87.5615 14.5938 87.8844 14.375L87.1344 21.4688C86.7281 21.7812 86.2854 22.0469 85.8063 22.2656C85.3375 22.4844 84.8479 22.6615 84.3375 22.7969C83.8271 22.9323 83.3115 23.0312 82.7906 23.0938C82.2698 23.1562 81.7594 23.1875 81.2594 23.1875C80.2281 23.1875 79.2854 23.0469 78.4313 22.7656C77.5771 22.4844 76.801 22.0938 76.1031 21.5938C75.4156 21.0833 74.8115 20.4844 74.2906 19.7969C73.7698 19.1094 73.3375 18.3594 72.9938 17.5469C72.65 16.7344 72.3896 15.875 72.2125 14.9688C72.0354 14.0625 71.9469 13.1458 71.9469 12.2188C71.9469 11.25 72.0354 10.2812 72.2125 9.3125C72.3896 8.34375 72.6552 7.41146 73.0094 6.51562C73.374 5.61979 73.8271 4.79167 74.3688 4.03125C74.9208 3.26042 75.5615 2.58854 76.2906 2.01562C77.0198 1.44271 77.8427 0.994792 78.7594 0.671875C79.6865 0.348958 80.7073 0.1875 81.8219 0.1875C82.749 0.1875 83.5927 0.317708 84.3531 0.578125C85.124 0.828125 85.8063 1.18229 86.4 1.64062C87.0042 2.08854 87.525 2.625 87.9625 3.25C88.4104 3.875 88.775 4.5625 89.0563 5.3125C89.3479 6.05208 89.5615 6.83854 89.6969 7.67188C89.8427 8.49479 89.9156 9.33333 89.9156 10.1875ZM83.6656 9.375C83.6656 9.08333 83.6344 8.78646 83.5719 8.48438C83.5094 8.17188 83.4052 7.89062 83.2594 7.64062C83.124 7.39062 82.9417 7.1875 82.7125 7.03125C82.4833 6.86458 82.1969 6.78125 81.8531 6.78125C81.4365 6.78125 81.0667 6.89583 80.7438 7.125C80.4313 7.34375 80.1604 7.625 79.9313 7.96875C79.7021 8.30208 79.5146 8.66667 79.3688 9.0625C79.2229 9.45833 79.1135 9.82292 79.0406 10.1562L83.6656 9.71875V9.375Z" fill="#FCE9CF"/>
<path d="M107.453 1.46875L106.891 8.0625C106.589 7.97917 106.292 7.92188 106 7.89062C105.708 7.85938 105.411 7.84375 105.109 7.84375C104.37 7.84375 103.661 7.9375 102.984 8.125C102.318 8.3125 101.724 8.59896 101.203 8.98438C100.693 9.36979 100.281 9.85938 99.9688 10.4531C99.6667 11.0365 99.5156 11.7292 99.5156 12.5312C99.5156 13.1146 99.599 13.625 99.7656 14.0625C99.9427 14.4896 100.188 14.849 100.5 15.1406C100.823 15.4219 101.208 15.6354 101.656 15.7812C102.115 15.9271 102.62 16 103.172 16C103.557 16 103.953 15.9635 104.359 15.8906C104.766 15.8073 105.172 15.6979 105.578 15.5625C105.984 15.4271 106.375 15.2708 106.75 15.0938C107.125 14.9167 107.474 14.7292 107.797 14.5312L107.547 21.875C107.141 22.0833 106.703 22.2708 106.234 22.4375C105.766 22.5938 105.281 22.7292 104.781 22.8438C104.292 22.9688 103.797 23.0625 103.297 23.125C102.807 23.1875 102.339 23.2188 101.891 23.2188C100.411 23.2188 99.0625 22.9427 97.8438 22.3906C96.6354 21.8385 95.5938 21.0885 94.7188 20.1406C93.8542 19.1823 93.1823 18.0729 92.7031 16.8125C92.224 15.5521 91.9844 14.2083 91.9844 12.7812C91.9844 11.0729 92.224 9.47917 92.7031 8C93.1927 6.52083 93.9062 5.23958 94.8438 4.15625C95.7917 3.0625 96.9583 2.20833 98.3438 1.59375C99.7396 0.96875 101.339 0.65625 103.141 0.65625C103.859 0.65625 104.589 0.713542 105.328 0.828125C106.068 0.942708 106.776 1.15625 107.453 1.46875Z" fill="#FCE9CF"/>
<path d="M127.1 0.78125L126.944 7.40625L122.287 7.59375L121.725 22.0938L115.131 22.4375L114.537 7.9375L109.881 8.1875L110.069 0.8125L127.1 0.78125Z" fill="#FCE9CF"/>
<path d="M137.747 0.8125L136.653 22.0938L130.059 22.4375L129.434 1.25L137.747 0.8125Z" fill="#FCE9CF"/>
<path d="M159.784 10.8438C159.784 11.7917 159.675 12.7083 159.456 13.5938C159.238 14.4688 158.92 15.2917 158.503 16.0625C158.097 16.8333 157.597 17.5417 157.003 18.1875C156.42 18.8229 155.758 19.3698 155.019 19.8281C154.29 20.2865 153.493 20.6458 152.628 20.9062C151.764 21.1562 150.847 21.2812 149.878 21.2812C148.941 21.2812 148.045 21.1615 147.191 20.9219C146.347 20.6823 145.555 20.349 144.816 19.9219C144.076 19.4844 143.404 18.9635 142.8 18.3594C142.206 17.7448 141.696 17.0677 141.269 16.3281C140.852 15.5781 140.524 14.776 140.284 13.9219C140.055 13.0677 139.941 12.1771 139.941 11.25C139.941 10.3438 140.05 9.45833 140.269 8.59375C140.488 7.71875 140.8 6.89583 141.206 6.125C141.623 5.35417 142.123 4.64583 142.706 4C143.29 3.35417 143.941 2.79688 144.659 2.32812C145.389 1.85938 146.175 1.49479 147.019 1.23438C147.863 0.973958 148.753 0.84375 149.691 0.84375C151.201 0.84375 152.576 1.07812 153.816 1.54688C155.066 2.01562 156.128 2.6875 157.003 3.5625C157.889 4.42708 158.571 5.47917 159.05 6.71875C159.54 7.94792 159.784 9.32292 159.784 10.8438ZM152.847 11.25C152.847 10.8021 152.779 10.3698 152.644 9.95312C152.519 9.52604 152.331 9.15104 152.081 8.82812C151.831 8.49479 151.519 8.22917 151.144 8.03125C150.779 7.82292 150.357 7.71875 149.878 7.71875C149.389 7.71875 148.951 7.80729 148.566 7.98438C148.18 8.16146 147.847 8.40625 147.566 8.71875C147.295 9.02083 147.086 9.38021 146.941 9.79688C146.795 10.2031 146.722 10.6354 146.722 11.0938C146.722 11.5312 146.784 11.9688 146.909 12.4062C147.034 12.8438 147.222 13.2396 147.472 13.5938C147.722 13.9479 148.029 14.2344 148.394 14.4531C148.769 14.6719 149.201 14.7812 149.691 14.7812C150.18 14.7812 150.618 14.6875 151.003 14.5C151.399 14.3021 151.732 14.0417 152.003 13.7188C152.274 13.3854 152.482 13.0052 152.628 12.5781C152.774 12.151 152.847 11.7083 152.847 11.25Z" fill="#FCE9CF"/>
<path d="M181.681 14.9062C181.681 16.0833 181.666 17.25 181.634 18.4062C181.614 19.5521 181.577 20.7083 181.525 21.875L172.525 21.7188C172.837 19.875 173.108 18.0365 173.337 16.2031C173.567 14.3594 173.681 12.5 173.681 10.625C173.681 10.4896 173.676 10.2708 173.666 9.96875C173.655 9.66667 173.634 9.32812 173.603 8.95312C173.572 8.56771 173.525 8.17708 173.462 7.78125C173.41 7.375 173.332 7.00521 173.228 6.67188C173.134 6.33854 173.015 6.06771 172.869 5.85938C172.733 5.64062 172.567 5.53125 172.369 5.53125C172.015 5.53125 171.712 5.63542 171.462 5.84375C171.223 6.05208 171.02 6.32292 170.853 6.65625C170.697 6.97917 170.572 7.34375 170.478 7.75C170.384 8.15625 170.311 8.5625 170.259 8.96875C170.218 9.375 170.186 9.76042 170.166 10.125C170.155 10.4792 170.15 10.7708 170.15 11C170.098 12.8438 170.056 14.6771 170.025 16.5C169.994 18.3125 169.952 20.1458 169.9 22L161.931 22.3438C162.14 18.6667 162.337 15.0104 162.525 11.375C162.723 7.73958 162.879 4.08333 162.994 0.40625L170.369 0.03125L170.306 2.53125C170.598 2.17708 170.91 1.84375 171.244 1.53125C171.587 1.21875 171.952 0.953125 172.337 0.734375C172.723 0.505208 173.129 0.328125 173.556 0.203125C173.994 0.0677083 174.452 0 174.931 0C175.817 0 176.593 0.145833 177.259 0.4375C177.926 0.729167 178.499 1.125 178.978 1.625C179.457 2.125 179.858 2.71875 180.181 3.40625C180.504 4.08333 180.765 4.80729 180.962 5.57812C181.16 6.34896 181.311 7.15625 181.416 8C181.52 8.83333 181.587 9.65625 181.619 10.4688C181.66 11.2812 181.681 12.0677 181.681 12.8281C181.681 13.5885 181.681 14.2812 181.681 14.9062Z" fill="#FCE9CF"/>
<path d="M200.781 14.8125C200.781 16.2396 200.531 17.474 200.031 18.5156C199.542 19.5469 198.865 20.401 198 21.0781C197.146 21.7448 196.141 22.2396 194.984 22.5625C193.839 22.875 192.604 23.0312 191.281 23.0312C190.771 23.0312 190.208 22.9635 189.594 22.8281C188.99 22.6927 188.375 22.526 187.75 22.3281C187.125 22.1198 186.521 21.901 185.938 21.6719C185.365 21.4323 184.854 21.2083 184.406 21L185.094 14.875C185.979 15.4062 186.958 15.8125 188.031 16.0938C189.115 16.3646 190.177 16.5 191.219 16.5C191.417 16.5 191.656 16.4948 191.938 16.4844C192.219 16.4635 192.484 16.4167 192.734 16.3438C192.995 16.2604 193.214 16.1406 193.391 15.9844C193.568 15.8281 193.656 15.6042 193.656 15.3125C193.656 15.1146 193.594 14.9479 193.469 14.8125C193.344 14.6667 193.182 14.5521 192.984 14.4688C192.786 14.375 192.562 14.3073 192.312 14.2656C192.062 14.2135 191.818 14.1771 191.578 14.1562C191.339 14.1354 191.115 14.125 190.906 14.125C190.698 14.125 190.531 14.125 190.406 14.125C189.51 14.125 188.693 13.9844 187.953 13.7031C187.224 13.4219 186.594 13.026 186.062 12.5156C185.542 11.9948 185.135 11.3698 184.844 10.6406C184.552 9.90104 184.406 9.08333 184.406 8.1875C184.406 6.95833 184.651 5.85938 185.141 4.89062C185.641 3.91146 186.302 3.08333 187.125 2.40625C187.958 1.71875 188.911 1.19271 189.984 0.828125C191.057 0.463542 192.167 0.28125 193.312 0.28125C193.823 0.28125 194.349 0.302083 194.891 0.34375C195.432 0.375 195.969 0.4375 196.5 0.53125C197.042 0.625 197.568 0.744792 198.078 0.890625C198.589 1.03646 199.073 1.21875 199.531 1.4375L198.938 7.78125C198.229 7.54167 197.484 7.34375 196.703 7.1875C195.932 7.02083 195.177 6.9375 194.438 6.9375C194.302 6.9375 194.125 6.94271 193.906 6.95312C193.698 6.95312 193.474 6.96875 193.234 7C193.005 7.02083 192.771 7.05729 192.531 7.10938C192.292 7.16146 192.078 7.23438 191.891 7.32812C191.703 7.41146 191.552 7.52604 191.438 7.67188C191.323 7.81771 191.271 7.98958 191.281 8.1875C191.292 8.41667 191.375 8.59375 191.531 8.71875C191.698 8.84375 191.906 8.9375 192.156 9C192.417 9.05208 192.698 9.07812 193 9.07812C193.312 9.07812 193.62 9.07292 193.922 9.0625C194.224 9.04167 194.505 9.02604 194.766 9.01562C195.026 8.99479 195.24 8.98958 195.406 9C196.24 9.05208 196.99 9.22917 197.656 9.53125C198.323 9.83333 198.885 10.2344 199.344 10.7344C199.812 11.2344 200.167 11.8333 200.406 12.5312C200.656 13.2188 200.781 13.9792 200.781 14.8125Z" fill="#FCE9CF"/>
</svg>
